<?xml version="1.0" encoding="UTF-8"?>
<svg version="1.1" xmlns="http://www.w3.org/2000/svg" width="353" height="447">
<path d="M0 0 C116.49 0 232.98 0 353 0 C353 147.51 353 295.02 353 447 C236.51 447 120.02 447 0 447 C0 299.49 0 151.98 0 0 Z " fill="#DBEEF9" transform="translate(0,0)"/>
<path d="M0 0 C77.22 0 154.44 0 234 0 C233.34 0.33 232.68 0.66 232 1 C232.639375 1.721875 233.27875 2.44375 233.9375 3.1875 C236 6 236 6 236.3828125 8.19921875 C237.23402502 12.06199961 239.03693384 15.18043408 240.9375 18.625 C241.29779297 19.29273437 241.65808594 19.96046875 242.02929688 20.6484375 C243.58689688 23.5169458 245.18838492 26.28257738 247 29 C247.35830313 30.32684127 247.6884722 31.66140398 248 33 C248.66575992 34.7920038 249.33253136 36.58363195 250 38.375 C254.06300802 50.54919557 254.2877195 63.30446406 248.875 75.0625 C243.15394095 85.54281687 235.64890914 92.15925614 226 99 C225.15824219 99.72445312 224.31648437 100.44890625 223.44921875 101.1953125 C220.77767582 103.16381782 219.19954341 103.37089474 216 104 C213.80664089 104.89808794 213.80664089 104.89808794 211.671875 106.0390625 C210.87612061 106.45091797 210.08036621 106.86277344 209.26049805 107.28710938 C193.81208007 115.5198557 184.50642636 122.40650994 178.61328125 139.50390625 C177.85226683 142.60128341 178.01727934 144.96994462 179 148 C178.01 148.33 177.02 148.66 176 149 C175.19587304 151.40320832 174.59500477 153.65974238 174.0625 156.125 C173.71537818 157.59648034 173.36770964 159.0678318 173.01953125 160.5390625 C172.384213 163.30302437 171.75940257 166.06907998 171.13671875 168.8359375 C169.43469339 175.8689762 167.25558274 182.14360744 164.0625 188.625 C163.73862305 189.28822266 163.41474609 189.95144531 163.08105469 190.63476562 C160.91074554 194.83744967 158.50312523 197.81977153 155 201 C152.96166576 199.7260411 150.96147874 198.38938077 149 197 C149 196.34 149 195.68 149 195 C147.8553125 194.814375 147.8553125 194.814375 146.6875 194.625 C144 194 144 194 141 192 C142.66751148 188.05860922 145.22710649 185.2107188 148 182 C147.278125 182.7425 146.55625 183.485 145.8125 184.25 C143.31407427 186.69290515 140.76356798 188.8681047 138 191 C137.18595703 190.47599609 137.18595703 190.47599609 136.35546875 189.94140625 C135.64003906 189.48636719 134.92460937 189.03132812 134.1875 188.5625 C133.12595703 187.88380859 133.12595703 187.88380859 132.04296875 187.19140625 C129.91865448 185.85913661 129.91865448 185.85913661 127 185 C125.43180374 184.32559435 123.86962901 183.6370797 122.3125 182.9375 C121.50425781 182.57527344 120.69601563 182.21304688 119.86328125 181.83984375 C119.24839844 181.56269531 118.63351563 181.28554687 118 181 C120.44038613 178.44510895 122.92115427 176.74745298 126 175 C118.83050847 180.20338983 118.83050847 180.20338983 114.609375 179.734375 C112.33095027 178.94390111 110.18328301 178.02213624 108 177 C106.824375 176.608125 105.64875 176.21625 104.4375 175.8125 C103.2309375 175.4103125 103.2309375 175.4103125 102 175 C102 174.34 102 173.68 102 173 C102.92683594 172.72285156 103.85367188 172.44570312 104.80859375 172.16015625 C106.00613281 171.79792969 107.20367187 171.43570313 108.4375 171.0625 C110.22994141 170.52302734 110.22994141 170.52302734 112.05859375 169.97265625 C114.85867545 169.29110858 114.85867545 169.29110858 116 168 C115.35675781 168.27714844 114.71351562 168.55429688 114.05078125 168.83984375 C104.62857054 172.6167927 95.72546686 174.44573665 86 171 C83.71640035 170.57865246 81.42380706 170.20340101 79.125 169.875 C77.39636719 169.62363281 77.39636719 169.62363281 75.6328125 169.3671875 C74.76398438 169.24601563 73.89515625 169.12484375 73 169 C73 168.34 73 167.68 73 167 C71.68 166.67 70.36 166.34 69 166 C69.33 166.66 69.66 167.32 70 168 C68.68 168 67.36 168 66 168 C66.45932179 172.7769466 67.13598672 175.25475187 70 179 C70.93980473 180.89549348 71.83465906 182.81382057 72.6875 184.75 C73.12449219 185.73484375 73.56148438 186.7196875 74.01171875 187.734375 C74.33785156 188.48203125 74.66398437 189.2296875 75 190 C74.01 190 73.02 190 72 190 C72.90621094 190.38414062 73.81242187 190.76828125 74.74609375 191.1640625 C78.34812922 193.19642345 79.78717577 194.96434972 82.0625 198.375 C84.80629781 202.35403246 87.49043853 205.70313923 91 209 C91.33 209.66 91.66 210.32 92 211 C89.08403456 209.85403693 86.19515296 208.65870276 83.3203125 207.4140625 C68.98627941 201.26454305 53.80871291 195.25065863 38 198 C38.66 198.99 39.32 199.98 40 201 C40.62034484 202.81457699 41.17808925 204.65121173 41.6875 206.5 C41.95949219 207.4590625 42.23148438 208.418125 42.51171875 209.40625 C43 212 43 212 42 215 C42.38932856 217.14255793 42.38932856 217.14255793 43 219 C43.66 219 44.32 219 45 219 C46.27640743 220.74382423 47.47014882 222.54840272 48.625 224.375 C52.41457042 230.21898955 56.54312224 235.64226397 61 241 C55.40654205 241 51.11558675 236.50048547 47 233 C44.11187112 229.81403283 41.50056692 226.49649472 39 223 C38.01 223.33 37.02 223.66 36 224 C33.525 220.535 33.525 220.535 31 217 C29.515 217.99 29.515 217.99 28 219 C28 219.99 28 220.98 28 222 C27.34742127 223.672233 26.68132451 225.33927151 26 227 C26 237.25686253 33.07501548 246.23248981 39 254 C34.72412002 254.08384078 31.23641013 253.84728203 27 253 C18.09 252.67 9.18 252.34 0 252 C0 168.84 0 85.68 0 0 Z " fill="#ECF6FC" transform="translate(0,0)"/>
<path d="M0 0 C1.89600369 0.31146472 3.79179587 0.62421717 5.6875 0.9375 C6.74324219 1.11152344 7.79898438 1.28554687 8.88671875 1.46484375 C17.66810837 2.97431725 26.29024176 5.06449817 35 7 C35 84.88 35 162.76 35 243 C4.31 243 -26.38 243 -58 243 C-58.495 239.535 -58.495 239.535 -59 236 C-58.34 236 -57.68 236 -57 236 C-56.67 236.33 -56.34 236.66 -56 237 C-55.67 235.35 -55.34 233.7 -55 232 C-55.66 232 -56.32 232 -57 232 C-57.33 232.99 -57.66 233.98 -58 235 C-58 234.01 -58 233.02 -58 232 C-58.66 232 -59.32 232 -60 232 C-60.33 233.32 -60.66 234.64 -61 236 C-62.59162079 230.42932723 -63.20674944 225.78898419 -63 220 C-63.99 219.67 -64.98 219.34 -66 219 C-65.67 216.69 -65.34 214.38 -65 212 C-64.01 212 -63.02 212 -62 212 C-62.33 210.68 -62.66 209.36 -63 208 C-64.32 207.67 -65.64 207.34 -67 207 C-67.33 208.32 -67.66 209.64 -68 211 C-68.99 208.03 -69.98 205.06 -71 202 C-71.66 202.66 -72.32 203.32 -73 204 C-73.99 201.36 -74.98 198.72 -76 196 C-77.65 196 -79.3 196 -81 196 C-81 195.34 -81 194.68 -81 194 C-81.66 193.67 -82.32 193.34 -83 193 C-82.01 192.67 -81.02 192.34 -80 192 C-79.67 188.7 -79.34 185.4 -79 182 C-79.99 181.67 -80.98 181.34 -82 181 C-81.01 178.03 -80.02 175.06 -79 172 C-80.44375 172.185625 -81.8875 172.37125 -83.375 172.5625 C-87.75 173.125 -87.75 173.125 -90 172 C-92.29924497 171.72975292 -94.59801487 171.55502159 -96.90625 171.37890625 C-99.44515379 170.91944045 -100.22743053 169.77256947 -102 168 C-102.99 168.99 -103.98 169.98 -105 171 C-105.495 170.484375 -105.99 169.96875 -106.5 169.4375 C-108.62476444 167.36585467 -110.79664037 165.47366706 -113.0625 163.5625 C-118.4777915 158.82160354 -120.31556724 155.25498726 -121 148 C-121 147.34 -121 146.68 -121 146 C-121.33 146 -121.66 146 -122 146 C-122.33 143.03 -122.66 140.06 -123 137 C-126.96 137.99 -126.96 137.99 -131 139 C-131 138.01 -131 137.02 -131 136 C-128 134 -128 134 -124 134 C-124 133.34 -124 132.68 -124 132 C-122.35443434 130.96564444 -120.6829392 129.97236487 -119 129 C-113.64546098 125.68528537 -112.42608661 121.88090953 -111 116 C-110.58257812 112.67409016 -110.52462285 109.41178711 -110.5625 106.0625 C-110.56733398 104.71345581 -110.56733398 104.71345581 -110.57226562 103.3371582 C-110.7572582 94.24939809 -112.61088602 85.73519798 -115 77 C-112.9219935 75.82286337 -110.83848217 74.65828026 -108.75 73.5 C-108.16347656 73.16613281 -107.57695312 72.83226562 -106.97265625 72.48828125 C-103.61417893 70.63923194 -101.93354216 70 -98 70 C-97.67 70.66 -97.34 71.32 -97 72 C-95.19933758 69.0534615 -93.49836105 66.11198065 -92 63 C-91.8453125 63.9590625 -91.8453125 63.9590625 -91.6875 64.9375 C-91.460625 65.618125 -91.23375 66.29875 -91 67 C-90.01 67.33 -89.02 67.66 -88 68 C-88 69.98 -88 71.96 -88 74 C-86.68 74.33 -85.36 74.66 -84 75 C-84.825 75.86625 -85.65 76.7325 -86.5 77.625 C-88.65865899 80.17890641 -88.9876294 80.86639751 -89.3125 84.375 C-89.1578125 85.674375 -89.1578125 85.674375 -89 87 C-88.01 87.33 -87.02 87.66 -86 88 C-88.375 89.0625 -88.375 89.0625 -91 90 C-91.99 89.505 -91.99 89.505 -93 89 C-92.98839844 88.39671875 -92.97679687 87.7934375 -92.96484375 87.171875 C-92.95582031 86.37265625 -92.94679687 85.5734375 -92.9375 84.75 C-92.92589844 83.96109375 -92.91429687 83.1721875 -92.90234375 82.359375 C-92.99614694 80.09308998 -93.36758937 78.1711105 -94 76 C-94.66 76 -95.32 76 -96 76 C-95.84144531 76.67160156 -95.68289062 77.34320313 -95.51953125 78.03515625 C-93.25440165 90.96172294 -94.77880601 104.84749696 -102 116 C-101.34 116 -100.68 116 -100 116 C-98.97521693 113.98217493 -97.98462027 111.96516944 -97.0703125 109.89453125 C-96.75835937 109.20746094 -96.44640625 108.52039063 -96.125 107.8125 C-95.81820312 107.11769531 -95.51140625 106.42289062 -95.1953125 105.70703125 C-94 104 -94 104 -92.1015625 103.296875 C-91.40804687 103.19890625 -90.71453125 103.1009375 -90 103 C-88.7625 102.814375 -87.525 102.62875 -86.25 102.4375 C-84.64125 102.2209375 -84.64125 102.2209375 -83 102 C-83.99 101.67 -84.98 101.34 -86 101 C-86.042721 99.33388095 -86.04063832 97.66617115 -86 96 C-85.67 95.67 -85.34 95.34 -85 95 C-84.80683287 92.97174509 -84.61674212 90.94276079 -84.4765625 88.91015625 C-84 87 -84 87 -81 85 C-80.67 84.34 -80.34 83.68 -80 83 C-79.01 83.33 -78.02 83.66 -77 84 C-77.020625 84.78375 -77.04125 85.5675 -77.0625 86.375 C-77.18684063 88.98114961 -77.18684063 88.98114961 -76 91 C-75.01 90.67 -74.02 90.34 -73 90 C-72.67 91.32 -72.34 92.64 -72 94 C-70.906875 93.835 -69.81375 93.67 -68.6875 93.5 C-65 93 -65 93 -62 93 C-59 96.33333333 -59 96.33333333 -59 99 C-57.35 98.67 -55.7 98.34 -54 98 C-54 96.68 -54 95.36 -54 94 C-53.34 94 -52.68 94 -52 94 C-52 93.34 -52 92.68 -52 92 C-51.01 91.67 -50.02 91.34 -49 91 C-46.4345406 88.4345406 -46.45953913 86.52313332 -46 83 C-47.98 83.99 -49.96 84.98 -52 86 C-51 83 -51 83 -48 81 C-46.79549696 78.44816596 -46.79549696 78.44816596 -46 76 C-45.34 76 -44.68 76 -44 76 C-44.66 74.68 -45.32 73.36 -46 72 C-46.763125 72.165 -47.52625 72.33 -48.3125 72.5 C-51 73 -51 73 -54 73 C-54.33 72.34 -54.66 71.68 -55 71 C-54.34 71 -53.68 71 -53 71 C-53.33 69.35 -53.66 67.7 -54 66 C-54.928125 66.165 -55.85625 66.33 -56.8125 66.5 C-60 67 -60 67 -63 67 C-62.34 64.69 -61.68 62.38 -61 60 C-60.01 60 -59.02 60 -58 60 C-57.67 57.36 -57.34 54.72 -57 52 C-58.175625 52.495 -59.35125 52.99 -60.5625 53.5 C-64.59220111 55.02999347 -67.72138314 55.26741355 -72 55 C-72.495 55.99 -72.495 55.99 -73 57 C-74.27445454 56.57316368 -75.54445882 56.13302798 -76.8125 55.6875 C-77.52019531 55.44386719 -78.22789062 55.20023437 -78.95703125 54.94921875 C-81.18770815 53.9127857 -82.44051633 52.8912887 -84 51 C-84.75 48.375 -84.75 48.375 -85 46 C-84.67 45.67 -84.34 45.34 -84 45 C-81.64523037 45.03266389 -79.29093302 45.10170983 -76.9375 45.1875 C-70.52467059 45.32712379 -66.44199435 44.41458469 -61 41 C-60.34 41 -59.68 41 -59 41 C-58.67 39.35 -58.34 37.7 -58 36 C-55 37 -55 37 -54 38 C-53.46890625 37.86722656 -52.9378125 37.73445313 -52.390625 37.59765625 C-49.18656712 36.79664178 -46.0434711 36.65096572 -42.75 36.4375 C-41.48671875 36.35371094 -40.2234375 36.26992187 -38.921875 36.18359375 C-37.95765625 36.12300781 -36.9934375 36.06242187 -36 36 C-39.96 35.67 -43.92 35.34 -48 35 C-47 30 -47 30 -46 29 C-46.68707031 28.87882812 -47.37414062 28.75765625 -48.08203125 28.6328125 C-48.98308594 28.46523437 -49.88414062 28.29765625 -50.8125 28.125 C-51.70582031 27.96257812 -52.59914063 27.80015625 -53.51953125 27.6328125 C-56 27 -56 27 -59 25 C-63.68476626 24.24552454 -67.05441901 24.38247772 -71.0625 27 C-72.0215625 27.99 -72.0215625 27.99 -73 29 C-75.45234885 28.01906046 -76.7809268 27.31296172 -78.3125 25.125 C-79.13974214 22.56806974 -78.93081179 21.49544602 -78 19 C-75.56268069 17.51902123 -73.26454286 16.30636483 -70.6875 15.125 C-69.23033851 14.42996048 -67.77330857 13.73464511 -66.31640625 13.0390625 C-65.58953613 12.6977832 -64.86266602 12.35650391 -64.11376953 12.00488281 C-61.08480501 10.5649177 -58.1093334 9.03024143 -55.125 7.5 C-50.24468085 5 -50.24468085 5 -48 5 C-47.67 4.34 -47.34 3.68 -47 3 C-45.02 3 -43.04 3 -41 3 C-40.5875 4.0725 -40.175 5.145 -39.75 6.25 C-38.3587365 9.54509777 -36.62958728 11.55176356 -34 14 C-34 14.66 -34 15.32 -34 16 C-27.23624719 18.57666774 -20.14867854 19.06364421 -13 18 C-5.73139514 14.32661905 -2.46755885 7.40267656 0 0 Z M-75 57 C-74.34 57 -73.68 57 -73 57 C-73 57.66 -73 58.32 -73 59 C-73.66 59 -74.32 59 -75 59 C-75 58.34 -75 57.68 -75 57 Z " fill="#CBE7F8" transform="translate(318,204)"/>
<path d="M0 0 C1.89600369 0.31146472 3.79179587 0.62421717 5.6875 0.9375 C6.74324219 1.11152344 7.79898438 1.28554687 8.88671875 1.46484375 C17.66810837 2.97431725 26.29024176 5.06449817 35 7 C35 59.8 35 112.6 35 167 C25.45126942 165.93902994 20.33926632 164.0425786 14.0625 156.9375 C12.21558931 154.30705145 10.98501232 152.04458354 10 149 C8.12623929 151.81064107 6.83951638 154.49883458 5.4375 157.5625 C2.21236219 164.05985791 -1.85549931 168.93384196 -7 174 C-8.09634766 175.09441406 -8.09634766 175.09441406 -9.21484375 176.2109375 C-13.1034609 179.8750721 -13.1034609 179.8750721 -15 181 C-20.1128931 180.64980184 -23.50810983 176.36491234 -27 173 C-27.68835938 172.33742188 -28.37671875 171.67484375 -29.0859375 170.9921875 C-35.44758469 164.38679904 -39.1154256 156.6537232 -42 148 C-42.61875 149.546875 -42.61875 149.546875 -43.25 151.125 C-46.32062216 158.19457194 -49.83315652 162.92213117 -57.17578125 165.875 C-65.20356979 168.68135297 -72.54318075 169.13542949 -81 169 C-80.63648438 168.33097656 -80.27296875 167.66195312 -79.8984375 166.97265625 C-76.72561593 160.91175351 -74.21561035 154.97961606 -72.0625 148.5 C-67.53962388 135.12698751 -60.11263074 123.86598121 -50 114 C-45.125 115.875 -45.125 115.875 -44 117 C-37.44589822 117.07314846 -31.67810035 115.18117673 -26 112 C-25.34 111.34 -24.68 110.68 -24 110 C-24.845625 110.495 -25.69125 110.99 -26.5625 111.5 C-32.56535443 114.07089462 -39.63480812 113.87203815 -46 113 C-49.46484375 111.22265625 -49.46484375 111.22265625 -52 109 C-52 107.68 -52 106.36 -52 105 C-50.12890625 103.2109375 -50.12890625 103.2109375 -47.5625 101.375 C-37.87129845 93.96246623 -30.88513944 85.65541832 -27 74 C-26.90601771 72.18945873 -26.87008013 70.37547219 -26.875 68.5625 C-26.87242187 67.61503906 -26.86984375 66.66757812 -26.8671875 65.69140625 C-26.98526525 63.29859541 -27.31887365 61.28663847 -28 59 C-27.27554688 58.98582031 -26.55109375 58.97164063 -25.8046875 58.95703125 C-19.25686351 58.70670912 -19.25686351 58.70670912 -13.375 56.125 C-9.94759432 51.61525568 -9.65574555 47.57211856 -10 42 C-11.10771981 36.83706244 -14.01003527 33.35519761 -18 30 C-20.31681127 28.55199295 -22.58584284 27.26415585 -25 26 C-27.23062259 24.81523709 -29.45966988 23.62750556 -31.6875 22.4375 C-32.78449219 21.85871094 -33.88148438 21.27992188 -35.01171875 20.68359375 C-39.8907733 17.9347408 -39.8907733 17.9347408 -42 16 C-42 15.01 -42 14.02 -42 13 C-42.66 13 -43.32 13 -44 13 C-46.09230769 8.56923077 -46.09230769 8.56923077 -45.625 5.6875 C-45.41875 5.130625 -45.2125 4.57375 -45 4 C-43.68 3.67 -42.36 3.34 -41 3 C-40.5875 4.0725 -40.175 5.145 -39.75 6.25 C-38.3587365 9.54509777 -36.62958728 11.55176356 -34 14 C-34 14.66 -34 15.32 -34 16 C-27.23624719 18.57666774 -20.14867854 19.06364421 -13 18 C-5.73139514 14.32661905 -2.46755885 7.40267656 0 0 Z " fill="#A8D1EE" transform="translate(318,204)"/>
<path d="M0 0 C2.63704476 2.06415444 5.03407141 4.03683396 7.3125 6.5 C12.94214959 11.73688334 18.50188315 13.12547079 26 15 C26 39.09 26 63.18 26 88 C-4.69 88 -35.38 88 -67 88 C-67.33 85.69 -67.66 83.38 -68 81 C-67.34 81 -66.68 81 -66 81 C-65.505 81.495 -65.505 81.495 -65 82 C-64.67 80.35 -64.34 78.7 -64 77 C-64.66 77 -65.32 77 -66 77 C-66.33 77.99 -66.66 78.98 -67 80 C-67 79.01 -67 78.02 -67 77 C-67.66 77 -68.32 77 -69 77 C-69.33 78.32 -69.66 79.64 -70 81 C-71.59162079 75.42932723 -72.20674944 70.78898419 -72 65 C-72.99 64.67 -73.98 64.34 -75 64 C-74.67 61.69 -74.34 59.38 -74 57 C-73.01 57 -72.02 57 -71 57 C-71.33 55.68 -71.66 54.36 -72 53 C-73.32 52.67 -74.64 52.34 -76 52 C-76.33 53.32 -76.66 54.64 -77 56 C-82.2112571 42.66694327 -85.79749733 30.37710456 -85 16 C-84.32195312 15.97421875 -83.64390625 15.9484375 -82.9453125 15.921875 C-72.90296581 15.30987603 -64.01678955 12.19816599 -56 6 C-54.62294236 4.36927384 -53.27277889 2.7133562 -52 1 C-51.34 1 -50.68 1 -50 1 C-48.7942512 2.90079197 -47.66225912 4.84848112 -46.5625 6.8125 C-41.15592162 16.04333658 -34.05009101 23.25412111 -25 29 C-13.95300917 20.6921196 -6.58894398 12.16895591 0 0 Z " fill="#A4CEED" transform="translate(327,359)"/>
<path d="M0 0 C6.19759961 5.66637678 10.46553088 11.44849404 11 20 C11.60328125 20.03738281 12.2065625 20.07476562 12.828125 20.11328125 C16.30132703 20.39898013 19.32892959 20.72175129 22.5625 22.0625 C24.37626402 24.50713846 24.78769917 26.57637041 24.6640625 29.60546875 C23.22094212 34.80919105 19.3305191 38.86025839 16 43 C13.89172945 46.16240582 13.66182535 47.50657469 13.375 51.1875 C13.189375 53.5696875 13.189375 53.5696875 13 56 C19.93 56.495 19.93 56.495 27 57 C29.53554893 50.66112767 29.85880563 45.93004273 27.9375 39.375 C26.84193457 35.43096446 26.93866545 32.94209976 28 29 C29.625 27 29.625 27 32 26 C35.75 26.3125 35.75 26.3125 39 27 C39.495 28.485 39.495 28.485 40 30 C40.66 30 41.32 30 42 30 C41.9175 29.236875 41.835 28.47375 41.75 27.6875 C42 25 42 25 43.6875 23.1875 C46.34230436 21.82422208 48.05574183 21.75464515 51 22 C52.15326328 29.31065166 52.1276612 36.51654294 52.09765625 43.90625 C52.09578772 45.24003038 52.09436587 46.57381146 52.09336853 47.90759277 C52.0895776 51.39276067 52.07977715 54.8778859 52.06866455 58.36303711 C52.05837623 61.92951887 52.05385511 65.49600763 52.04882812 69.0625 C52.0381513 76.04168403 52.02111676 83.02083996 52 90 C47.06587704 89.41383749 42.19846013 88.72471128 37.3125 87.80859375 C36.12011719 87.58623047 34.92773438 87.36386719 33.69921875 87.13476562 C32.47847656 86.90466797 31.25773437 86.67457031 30 86.4375 C28.12248047 86.08655273 28.12248047 86.08655273 26.20703125 85.72851562 C23.13761679 85.15446483 20.06862845 84.57823512 17 84 C16.34 85.98 15.68 87.96 15 90 C14.34 90 13.68 90 13 90 C12.62875 91.051875 12.2575 92.10375 11.875 93.1875 C10.07632436 97.4101052 7.7219842 99.36359452 4 102 C-1.81385476 103.93795159 -7.92108776 104.02055692 -13.4375 101.3125 C-18.47854593 96.76326343 -20.45821635 93.90774155 -21 87 C-21.99580078 86.97873047 -21.99580078 86.97873047 -23.01171875 86.95703125 C-27.63328898 86.70739899 -30.32987527 86.47302922 -34.1875 83.75 C-36 81 -36 81 -36.125 78.4375 C-34.66184622 75.26733347 -32.88366284 73.92244189 -30 72 C-26.11538953 70.70512984 -22.44116044 70.8767396 -18.39453125 70.90234375 C-17.55532639 70.9037587 -16.71612152 70.90517365 -15.85148621 70.90663147 C-13.17178784 70.91222785 -10.4921731 70.92477965 -7.8125 70.9375 C-5.99544392 70.94251547 -4.17838652 70.94707829 -2.36132812 70.95117188 C2.09248013 70.96219609 6.54622589 70.97945822 11 71 C6.11245608 70.20706352 1.4589904 69.87159125 -3.5078125 69.8671875 C-4.19632294 69.86623077 -4.88483337 69.86527405 -5.59420776 69.86428833 C-7.03790377 69.86361268 -8.48160293 69.86542367 -9.92529297 69.86962891 C-12.1260461 69.87500255 -14.32659672 69.86965454 -16.52734375 69.86328125 C-17.93750045 69.86394182 -19.34765702 69.86522254 -20.7578125 69.8671875 C-22.0277002 69.86831543 -23.29758789 69.86944336 -24.60595703 69.87060547 C-27.54244033 69.98255599 -30.15099128 70.31577587 -33 71 C-34.17154293 68.71070947 -35.33738074 66.41881638 -36.5 64.125 C-36.83386719 63.47402344 -37.16773438 62.82304687 -37.51171875 62.15234375 C-40 57.2265625 -40 57.2265625 -40 55 C-38.37750059 54.16180842 -36.75191503 53.3295884 -35.125 52.5 C-34.22007812 52.0359375 -33.31515625 51.571875 -32.3828125 51.09375 C-30 50 -30 50 -28 50 C-26.515 53.465 -26.515 53.465 -25 57 C-18.565 56.505 -18.565 56.505 -12 56 C-12.22670382 47.95201437 -13.88321976 43.22414313 -19 37 C-19.53882813 36.50113281 -20.07765625 36.00226563 -20.6328125 35.48828125 C-22.74654408 33.18733345 -22.9206802 31.04139688 -23.18359375 28.00390625 C-23 26 -23 26 -21.0625 23.0625 C-17.10484572 20.397141 -14.74109158 20.15544563 -10 20 C-9.34 20.33 -8.68 20.66 -8 21 C-8.3403125 19.453125 -8.3403125 19.453125 -8.6875 17.875 C-9.28238425 10.49843531 -4.33977397 5.53356292 0 0 Z " fill="#CAE8FB" transform="translate(301,118)"/>
<path d="M0 0 C19.21905083 6.78319441 19.21905083 6.78319441 26.375 9.9375 C33.7223294 13.10872743 41.14182137 15.97693571 48.68310547 18.65405273 C61.27265194 23.16167502 61.27265194 23.16167502 65.1640625 28.94921875 C66.67322458 32.65160235 65.8702775 36.20007547 65 40 C65.66 40 66.32 40 67 40 C67 39.34 67 38.68 67 38 C68.32 37.67 69.64 37.34 71 37 C71.226875 37.61875 71.45375 38.2375 71.6875 38.875 C73.3855017 41.62414561 74.99652258 41.99884086 78 43 C79 44 79 44 79.09765625 46.06640625 C79.08605469 46.89011719 79.07445313 47.71382813 79.0625 48.5625 C79.05347656 49.38878906 79.04445313 50.21507812 79.03515625 51.06640625 C79.02355469 51.70449219 79.01195313 52.34257812 79 53 C79.66 53 80.32 53 81 53 C81 52.01 81 51.02 81 50 C82.65 49.34 84.3 48.68 86 48 C86.625 50.375 86.625 50.375 87 53 C83.57974684 56.42025316 79.28017975 56.95344801 74.5625 57.125 C73.716875 57.08375 72.87125 57.0425 72 57 C72 57.99 72 58.98 72 60 C71.34 60 70.68 60 70 60 C69.34 59.01 68.68 58.02 68 57 C65.94074861 56.27617533 65.94074861 56.27617533 64 56 C63.505 56.99 63.505 56.99 63 58 C61.02 57.34 59.04 56.68 57 56 C57 58.31 57 60.62 57 63 C60.62885324 63.15149298 60.62885324 63.15149298 64 62 C64.33 62.99 64.66 63.98 65 65 C61.93882432 67.62386487 61.26826873 68 57 68 C56.896875 68.763125 56.79375 69.52625 56.6875 70.3125 C55.94960299 73.19700648 55.46756016 74.35495989 53 76 C50.8125 75.6875 50.8125 75.6875 49 75 C49.495 73.515 49.495 73.515 50 72 C51.32 72 52.64 72 54 72 C54 70.68 54 69.36 54 68 C53.236875 68 52.47375 68 51.6875 68 C48.24115626 68 45.32402838 67.91697335 42 67 C42 69.31 42 71.62 42 74 C40.02 74 38.04 74 36 74 C36 73.01 36 72.02 36 71 C36.99 71 37.98 71 39 71 C39 69.68 39 68.36 39 67 C37.35 67 35.7 67 34 67 C34 68.98 34 70.96 34 73 C33.01 72.505 33.01 72.505 32 72 C32 70.35 32 68.7 32 67 C30.35 66.67 28.7 66.34 27 66 C27 67.65 27 69.3 27 71 C25.515 70.505 25.515 70.505 24 70 C24 69.01 24 68.02 24 67 C22.35 66.67 20.7 66.34 19 66 C18.67 67.32 18.34 68.64 18 70 C17.67 68.68 17.34 67.36 17 66 C15.68 65.67 14.36 65.34 13 65 C13 65.66 13 66.32 13 67 C8.71 66.34 4.42 65.68 0 65 C0 43.55 0 22.1 0 0 Z " fill="#E9F4F7" transform="translate(0,286)"/>
<path d="M0 0 C2.63704476 2.06415444 5.03407141 4.03683396 7.3125 6.5 C12.94214959 11.73688334 18.50188315 13.12547079 26 15 C26 39.09 26 63.18 26 88 C21.38 88 16.76 88 12 88 C12 87.01 12 86.02 12 85 C12.99 84.67 13.98 84.34 15 84 C15 83.34 15 82.68 15 82 C14.37351562 81.87882812 13.74703125 81.75765625 13.1015625 81.6328125 C12.28429687 81.46523438 11.46703125 81.29765625 10.625 81.125 C9.81289063 80.96257812 9.00078125 80.80015625 8.1640625 80.6328125 C6 80 6 80 4 78 C4.66 76.35 5.32 74.7 6 73 C6.99 73.495 6.99 73.495 8 74 C8 74.66 8 75.32 8 76 C9.65 76 11.3 76 13 76 C13 75.34 13 74.68 13 74 C13.66 73.67 14.32 73.34 15 73 C15.65213292 70.97536745 15.65213292 70.97536745 16 69 C13.69 68.34 11.38 67.68 9 67 C9 66.34 9 65.68 9 65 C9.99 65 10.98 65 12 65 C12.495 63.515 12.495 63.515 13 62 C13.99 61.67 14.98 61.34 16 61 C16.33 60.01 16.66 59.02 17 58 C16.34 58 15.68 58 15 58 C15 58.99 15 59.98 15 61 C14.34 61 13.68 61 13 61 C12.505 61.99 12.505 61.99 12 63 C11.34 63 10.68 63 10 63 C10 61.02 10 59.04 10 57 C8.35 57 6.7 57 5 57 C5 59.31 5 61.62 5 64 C5.99 64.495 5.99 64.495 7 65 C6.566875 65.7734375 6.566875 65.7734375 6.125 66.5625 C4.85658133 69.12475535 4.85658133 69.12475535 4.0625 72.5625 C3.07994023 75.74136983 2.56216348 77.0201464 0 79 C-0.99 78.67 -1.98 78.34 -3 78 C-2.01 77.67 -1.02 77.34 0 77 C0.33 74.36 0.66 71.72 1 69 C-2.63 68.67 -6.26 68.34 -10 68 C-10.144375 69.051875 -10.28875 70.10375 -10.4375 71.1875 C-10.87526966 74.15460549 -11.37804866 77.06794366 -12 80 C-13.41655793 80.0272415 -14.83327045 80.04650467 -16.25 80.0625 C-17.43335938 80.07990234 -17.43335938 80.07990234 -18.640625 80.09765625 C-20.90691002 80.00385306 -22.8288895 79.63241063 -25 79 C-25 80.32 -25 81.64 -25 83 C-25.99 83 -26.98 83 -28 83 C-28 81.68 -28 80.36 -28 79 C-28.66 79 -29.32 79 -30 79 C-28.70700306 76.11562221 -27.34058637 74.12780579 -25 72 C-25 72.66 -25 73.32 -25 74 C-24.34 74 -23.68 74 -23 74 C-22.67 73.34 -22.34 72.68 -22 72 C-21.67 72.99 -21.34 73.98 -21 75 C-19.02 74.505 -19.02 74.505 -17 74 C-16.87625 73.195625 -16.7525 72.39125 -16.625 71.5625 C-16.315625 70.2940625 -16.315625 70.2940625 -16 69 C-15.01 68.505 -15.01 68.505 -14 68 C-13.34786708 65.97536745 -13.34786708 65.97536745 -13 64 C-12.21753906 63.95101562 -11.43507813 63.90203125 -10.62890625 63.8515625 C-9.61699219 63.77679688 -8.60507812 63.70203125 -7.5625 63.625 C-6.04849609 63.52058594 -6.04849609 63.52058594 -4.50390625 63.4140625 C-3.67761719 63.27742188 -2.85132813 63.14078125 -2 63 C-1.505 62.01 -1.505 62.01 -1 61 C-0.01 61 0.98 61 2 61 C1.505 59.02 1.505 59.02 1 57 C-0.32 56.67 -1.64 56.34 -3 56 C-3 55.34 -3 54.68 -3 54 C-4.98 54.495 -4.98 54.495 -7 55 C-7 54.01 -7 53.02 -7 52 C-4.69 52 -2.38 52 0 52 C0 51.34 0 50.68 0 50 C0.66 49.34 1.32 48.68 2 48 C1.01 48 0.02 48 -1 48 C-1 47.01 -1 46.02 -1 45 C-3.64 44.67 -6.28 44.34 -9 44 C-9 44.66 -9 45.32 -9 46 C-11.64 45.34 -14.28 44.68 -17 44 C-16.979375 45.27875 -16.95875 46.5575 -16.9375 47.875 C-16.875 51.75 -16.875 51.75 -18 54 C-17.34 54.33 -16.68 54.66 -16 55 C-16.66 55 -17.32 55 -18 55 C-18 56.98 -18 58.96 -18 61 C-18.33 61 -18.66 61 -19 61 C-19 59.02 -19 57.04 -19 55 C-20.175625 55.185625 -21.35125 55.37125 -22.5625 55.5625 C-26.61268594 56.08230996 -29.99874453 55.7502354 -34 55 C-34 54.01 -34 53.02 -34 52 C-31.525 51.505 -31.525 51.505 -29 51 C-29.495 49.515 -29.495 49.515 -30 48 C-28.515 47.505 -28.515 47.505 -27 47 C-26.67 46.34 -26.34 45.68 -26 45 C-28.91517292 46.07401108 -30.77810176 46.77810176 -33 49 C-33.66 48.67 -34.32 48.34 -35 48 C-35.28875 48.61875 -35.5775 49.2375 -35.875 49.875 C-37 52 -37 52 -39 54 C-39.66 54 -40.32 54 -41 54 C-41 53.34 -41 52.68 -41 52 C-40.34 52 -39.68 52 -39 52 C-39.15339844 51.32582031 -39.30679687 50.65164063 -39.46484375 49.95703125 C-40.08483857 46.53122048 -40.3352574 43.16106553 -40.5625 39.6875 C-40.64628906 38.43324219 -40.73007812 37.17898438 -40.81640625 35.88671875 C-40.87699219 34.93410156 -40.93757813 33.98148437 -41 33 C-40.22269531 32.72414063 -39.44539063 32.44828125 -38.64453125 32.1640625 C-35.38555571 30.7295356 -34.03702837 28.86692882 -32 26 C-29.03824877 26.61277612 -27.61941217 27.25372522 -25 29 C-13.95300917 20.6921196 -6.58894398 12.16895591 0 0 Z " fill="#9DC7E7" transform="translate(327,359)"/>
<path d="M0 0 C2.70272533 2.87164566 3.94791837 4.30991841 4.25 8.3125 C4.1675 9.199375 4.085 10.08625 4 11 C4.66 11 5.32 11 6 11 C6 10.01 6 9.02 6 8 C6.99 7.67 7.98 7.34 9 7 C10.20882096 4.99983534 10.20882096 4.99983534 11 3 C11.99 3.99 11.99 3.99 13 5 C12.625 8.125 12.625 8.125 12 11 C12.66 11 13.32 11 14 11 C14.33 10.34 14.66 9.68 15 9 C17.80045623 12.14591933 18.35261589 14.067064 18.1875 18.25 C18.14689453 19.58804687 18.14689453 19.58804687 18.10546875 20.953125 C18.07066406 21.62859375 18.03585938 22.3040625 18 23 C19.485 23.495 19.485 23.495 21 24 C21.6875 26.0625 21.6875 26.0625 22 28 C20.68 28 19.36 28 18 28 C19.485 28.495 19.485 28.495 21 29 C21 29.99 21 30.98 21 32 C22.485 32.495 22.485 32.495 24 33 C24.495 36.465 24.495 36.465 25 40 C-8.66 40 -42.32 40 -77 40 C-76.67 38.35 -76.34 36.7 -76 35 C-73.4375 33.6875 -73.4375 33.6875 -71 33 C-71 32.01 -71 31.02 -71 30 C-72.98 30 -74.96 30 -77 30 C-77.33 28.02 -77.66 26.04 -78 24 C-79.65 25.65 -81.3 27.3 -83 29 C-83.33 27.35 -83.66 25.7 -84 24 C-84.66 25.98 -85.32 27.96 -86 30 C-87.98 29.67 -89.96 29.34 -92 29 C-91.67 26.69 -91.34 24.38 -91 22 C-90.01 22 -89.02 22 -88 22 C-87.67 22.33 -87.34 22.66 -87 23 C-87 22.34 -87 21.68 -87 21 C-84 20 -84 20 -81 21 C-81 20.01 -81 19.02 -81 18 C-79.68825887 17.4980125 -78.37558403 16.99846423 -77.0625 16.5 C-76.33160156 16.2215625 -75.60070312 15.943125 -74.84765625 15.65625 C-72.51097849 14.82630949 -71.64581004 15 -69 15 C-68.67 14.34 -68.34 13.68 -68 13 C-67.34 13 -66.68 13 -66 13 C-65.67 13.66 -65.34 14.32 -65 15 C-65 13.68 -65 12.36 -65 11 C-62.36 11.33 -59.72 11.66 -57 12 C-57 10.35 -57 8.7 -57 7 C-56.5875 7.639375 -56.175 8.27875 -55.75 8.9375 C-53.74650331 11.29876396 -52.91260286 11.36286812 -50 12 C-48.25 13.5625 -48.25 13.5625 -47 15 C-46.67 14.01 -46.34 13.02 -46 12 C-44.0625 12.375 -44.0625 12.375 -42 13 C-41.505 13.99 -41.505 13.99 -41 15 C-40.67 14.34 -40.34 13.68 -40 13 C-38.35 13 -36.7 13 -35 13 C-34.505 14.98 -34.505 14.98 -34 17 C-33.34 17 -32.68 17 -32 17 C-31.67 15.35 -31.34 13.7 -31 12 C-30.071875 12.2784375 -30.071875 12.2784375 -29.125 12.5625 C-26.95839822 13.23686176 -26.95839822 13.23686176 -25 12 C-22.375 12.9375 -22.375 12.9375 -20 14 C-20 14.66 -20 15.32 -20 16 C-19.01 15.34 -18.02 14.68 -17 14 C-16.05125 14.04125 -15.1025 14.0825 -14.125 14.125 C-10.16615852 13.96664634 -8.79460301 12.71475721 -6 10 C-5.67 9.34 -5.34 8.68 -5 8 C-4.34 8 -3.68 8 -3 8 C-2.5359375 6.576875 -2.5359375 6.576875 -2.0625 5.125 C-1 2 -1 2 0 0 Z " fill="#C6E6F9" transform="translate(232,407)"/>
<path d="M0 0 C2.70272533 2.87164566 3.94791837 4.30991841 4.25 8.3125 C4.1675 9.199375 4.085 10.08625 4 11 C4.66 11 5.32 11 6 11 C6 10.01 6 9.02 6 8 C6.99 7.67 7.98 7.34 9 7 C10.20882096 4.99983534 10.20882096 4.99983534 11 3 C11.66 3.66 12.32 4.32 13 5 C12.625 8.125 12.625 8.125 12 11 C12.66 11 13.32 11 14 11 C14.33 10.34 14.66 9.68 15 9 C17.80045623 12.14591933 18.35261589 14.067064 18.1875 18.25 C18.14689453 19.58804687 18.14689453 19.58804687 18.10546875 20.953125 C18.07066406 21.62859375 18.03585938 22.3040625 18 23 C18.99 23.33 19.98 23.66 21 24 C21.6875 26.0625 21.6875 26.0625 22 28 C20.68 28 19.36 28 18 28 C18.99 28.33 19.98 28.66 21 29 C21 29.99 21 30.98 21 32 C21.99 32.33 22.98 32.66 24 33 C24.495 36.465 24.495 36.465 25 40 C18.68307984 40.1269082 12.36648906 40.21439585 6.04858398 40.2746582 C3.90002151 40.29978285 1.75154435 40.33388861 -0.39672852 40.37719727 C-3.48735612 40.43793792 -6.57685263 40.46623044 -9.66796875 40.48828125 C-10.62648239 40.51408768 -11.58499603 40.5398941 -12.57255554 40.56648254 C-17.2219625 40.56843231 -19.31315605 40.51734556 -23.1262207 37.64526367 C-25.17828141 34.74831543 -25.49497227 33.46480591 -25 30 C-23.68 30 -22.36 30 -21 30 C-21 28.68 -21 27.36 -21 26 C-21.66 26 -22.32 26 -23 26 C-23.375 22.8125 -23.375 22.8125 -23 19 C-20.375 16.0625 -20.375 16.0625 -17 14 C-15.00041636 13.95919217 -12.99954746 13.95745644 -11 14 C-8.30009338 12.20006226 -6.4581135 10.916227 -5 8 C-4.34 8 -3.68 8 -3 8 C-2.690625 7.05125 -2.38125 6.1025 -2.0625 5.125 C-1 2 -1 2 0 0 Z " fill="#B1D9F3" transform="translate(232,407)"/>
<path d="M0 0 C0.20753906 0.72445312 0.41507812 1.44890625 0.62890625 2.1953125 C1.09103516 3.64550781 1.09103516 3.64550781 1.5625 5.125 C1.85253906 6.07632813 2.14257812 7.02765625 2.44140625 8.0078125 C6.63462576 16.05795321 15.22376677 19.40379314 23.06054688 23.12304688 C28.5088769 25.83632394 32.82542904 28.67812008 36 34 C37.31304447 39.40031623 36.87030107 44.32386461 34.3125 49.25 C27.75721874 52.71316746 20.05600261 51.47986632 13 50 C7.57323876 49.72866194 3.03747325 50.28176088 -2.21484375 51.66015625 C-2.80394531 51.77230469 -3.39304687 51.88445312 -4 52 C-5 51 -5 51 -5.4375 48.25 C-5 45 -5 45 -2.1875 42.1875 C2.21828405 39.16392271 5.07825162 38.86292561 10.3125 38.875 C11.42238281 38.87242187 12.53226562 38.86984375 13.67578125 38.8671875 C16.86801125 38.99472665 19.86508827 39.40242227 23 40 C20.82235971 33.23785385 18.62013943 29.15634392 12.3046875 25.39453125 C7.42593815 23.33576823 2.79452369 23.53279816 -2.44140625 23.40625 C-6.18566948 22.97880392 -7.892829 22.00682377 -11 20 C-15.67885474 19.11069713 -19.05648158 19.38382471 -23.0625 22 C-23.701875 22.66 -24.34125 23.32 -25 24 C-27.45234885 23.01906046 -28.7809268 22.31296172 -30.3125 20.125 C-31.13974214 17.56806974 -30.93081179 16.49544602 -30 14 C-27.56268069 12.51902123 -25.26454286 11.30636483 -22.6875 10.125 C-21.23033851 9.42996048 -19.77330857 8.73464511 -18.31640625 8.0390625 C-17.58953613 7.6977832 -16.86266602 7.35650391 -16.11376953 7.00488281 C-13.08480501 5.5649177 -10.1093334 4.03024143 -7.125 2.5 C-2.24468085 0 -2.24468085 0 0 0 Z " fill="#BDE1FB" transform="translate(270,209)"/>
<path d="M0 0 C1.65 0.33 3.3 0.66 5 1 C5.33 2.32 5.66 3.64 6 5 C6 3.68 6 2.36 6 1 C7.65 1 9.3 1 11 1 C11 2.32 11 3.64 11 5 C11.66 5 12.32 5 13 5 C13.33 3.68 13.66 2.36 14 1 C15.65 1 17.3 1 19 1 C19 18.82 19 36.64 19 55 C14.38 55 9.76 55 5 55 C5 54.01 5 53.02 5 52 C6.485 51.505 6.485 51.505 8 51 C8 50.34 8 49.68 8 49 C7.06027344 48.81824219 7.06027344 48.81824219 6.1015625 48.6328125 C5.28429687 48.46523438 4.46703125 48.29765625 3.625 48.125 C2.81289063 47.96257812 2.00078125 47.80015625 1.1640625 47.6328125 C-1 47 -1 47 -3 45 C-2.34 43.35 -1.68 41.7 -1 40 C-0.34 40.33 0.32 40.66 1 41 C1 41.66 1 42.32 1 43 C2.65 43 4.3 43 6 43 C6 42.34 6 41.68 6 41 C6.99 40.505 6.99 40.505 8 40 C8.65213292 37.97536745 8.65213292 37.97536745 9 36 C6.69 35.34 4.38 34.68 2 34 C2 33.34 2 32.68 2 32 C2.99 32 3.98 32 5 32 C5.33 31.01 5.66 30.02 6 29 C6.99 28.67 7.98 28.34 9 28 C9.33 27.01 9.66 26.02 10 25 C9.34 25 8.68 25 8 25 C8 25.99 8 26.98 8 28 C7.34 28 6.68 28 6 28 C5.67 28.66 5.34 29.32 5 30 C4.34 30 3.68 30 3 30 C3 28.02 3 26.04 3 24 C1.35 24 -0.3 24 -2 24 C-1.67 20.04 -1.34 16.08 -1 12 C0.32 12 1.64 12 3 12 C2.67 10.02 2.34 8.04 2 6 C1.01 6.495 1.01 6.495 0 7 C0 4.69 0 2.38 0 0 Z " fill="#A1C9E6" transform="translate(334,392)"/>
<path d="M0 0 C3.83508741 5.75263111 3.11884965 12.31800851 3 19 C-5.18953484 18.11897425 -13.20025867 16.4414036 -21.26953125 14.81640625 C-30.75225034 12.94641847 -39.95940262 11.82090151 -49.625 11.875 C-50.32367188 11.87113281 -51.02234375 11.86726562 -51.7421875 11.86328125 C-56.57280784 11.87222684 -61.21694009 12.3228477 -66 13 C-64 11 -64 11 -61.4375 10 C-58.85158559 9.25129886 -58.85158559 9.25129886 -58 7 C-56.14453125 6.25390625 -56.14453125 6.25390625 -53.8125 5.5625 C-51.0566687 4.74091486 -48.81213223 3.89272468 -46.30126953 2.45898438 C-42.45778904 0.76037179 -39.84591855 0.68321276 -35.66015625 0.77734375 C-34.63238319 0.79082603 -34.63238319 0.79082603 -33.58384705 0.80458069 C-31.40952839 0.8343947 -29.23635832 0.88412563 -27.0625 0.9375 C-24.89229093 0.98559796 -22.72239184 1.02894071 -20.55186462 1.05970764 C-18.58003389 1.08828742 -16.60846292 1.13339024 -14.63696289 1.17944336 C-9.71404567 0.93655257 -4.61777651 -2.22337388 0 0 Z " fill="#BADFFA" transform="translate(350,189)"/>
<path d="M0 0 C0 1.98 0 3.96 0 6 C1.11375 5.835 2.2275 5.67 3.375 5.5 C7 5 7 5 9 5 C9 5.66 9 6.32 9 7 C10.093125 6.525625 11.18625 6.05125 12.3125 5.5625 C16.89413174 3.57424472 18.76647136 2.95329427 24 4 C24 11.92 24 19.84 24 28 C14.45126942 26.93902994 9.33926632 25.0425786 3.0625 17.9375 C1.21558931 15.30705145 -0.01498768 13.04458354 -1 10 C-3.30776255 13.46164383 -4.99785494 17.06865826 -6.78125 20.8203125 C-8 23 -8 23 -10 24 C-10.33 23.01 -10.66 22.02 -11 21 C-13.00016466 19.79117904 -13.00016466 19.79117904 -15 19 C-15.33 19.99 -15.66 20.98 -16 22 C-16.99 22 -17.98 22 -19 22 C-19.33 21.34 -19.66 20.68 -20 20 C-20.763125 20.350625 -21.52625 20.70125 -22.3125 21.0625 C-25 22 -25 22 -28 21 C-24.59772219 17.3975882 -21.1264848 14.71972862 -17 12 C-16.67 11.34 -16.34 10.68 -16 10 C-15.01 10 -14.02 10 -13 10 C-11.58245275 8.75149165 -11.58245275 8.75149165 -10 7 C-1.80487805 0 -1.80487805 0 0 0 Z " fill="#9DC7E6" transform="translate(329,343)"/>
<path d="M0 0 C0.928125 0.804375 0.928125 0.804375 1.875 1.625 C3.23625 2.800625 3.23625 2.800625 4.625 4 C7.7169339 7.88892307 7.58842733 12.03205809 7.33203125 16.83203125 C6.875 19.625 6.875 19.625 5.1875 22.875 C-1.36778126 26.33816746 -9.06899739 25.10486632 -16.125 23.625 C-21.55176124 23.35366194 -26.08752675 23.90676088 -31.33984375 25.28515625 C-32.22349609 25.45337891 -32.22349609 25.45337891 -33.125 25.625 C-34.125 24.625 -34.125 24.625 -34.5625 21.875 C-34.125 18.625 -34.125 18.625 -31.3125 15.8125 C-26.90671595 12.78892271 -24.04674838 12.48792561 -18.8125 12.5 C-17.70261719 12.49742187 -16.59273438 12.49484375 -15.44921875 12.4921875 C-12.25698875 12.61972665 -9.25991173 13.02742227 -6.125 13.625 C-7.61 8.675 -7.61 8.675 -9.125 3.625 C-2.81982289 -0.4976158 -2.81982289 -0.4976158 0 0 Z " fill="#B0D8F4" transform="translate(299.125,235.375)"/>
<path d="M0 0 C3.63 0 7.26 0 11 0 C12 4 12 4 11 6 C10.34 6 9.68 6 9 6 C9 7.65 9 9.3 9 11 C9.33 10.01 9.66 9.02 10 8 C11.32 8 12.64 8 14 8 C14 5.69 14 3.38 14 1 C15.98 1 17.96 1 20 1 C20 2.65 20 4.3 20 6 C20.33 4.35 20.66 2.7 21 1 C22.65 1 24.3 1 26 1 C26.33 2.32 26.66 3.64 27 5 C26.34 5 25.68 5 25 5 C25 4.01 25 3.02 25 2 C24.34 2 23.68 2 23 2 C23.061875 2.9075 23.12375 3.815 23.1875 4.75 C22.98327924 8.28982642 22.35448165 9.44931155 20 12 C22.97 12.495 22.97 12.495 26 13 C25.67 18.28 25.34 23.56 25 29 C24.01 29.33 23.02 29.66 22 30 C22 30.66 22 31.32 22 32 C20.35 32 18.7 32 17 32 C16.67 31.34 16.34 30.68 16 30 C15.01 30.33 14.02 30.66 13 31 C11.875 26.25 11.875 26.25 13 24 C14.64142963 22.9590934 16.30712215 21.95495674 18 21 C15.6870518 18.6870518 14.52095125 18.50419025 11.375 17.875 C10.55773437 17.70742188 9.74046875 17.53984375 8.8984375 17.3671875 C8.27195312 17.24601562 7.64546875 17.12484375 7 17 C7 17.66 7 18.32 7 19 C5.68 19 4.36 19 3 19 C2.67 18.34 2.34 17.68 2 17 C1.67 17.66 1.34 18.32 1 19 C0.34 19 -0.32 19 -1 19 C-1 16.36 -1 13.72 -1 11 C-0.01 11 0.98 11 2 11 C2 9.68 2 8.36 2 7 C1.34 7 0.68 7 0 7 C0 4.69 0 2.38 0 0 Z M5 23 C7.375 23.25 7.375 23.25 10 24 C11.3125 26.0625 11.3125 26.0625 12 28 C10.35 28.33 8.7 28.66 7 29 C7 29.66 7 30.32 7 31 C6.34 31 5.68 31 5 31 C5 28.36 5 25.72 5 23 Z " fill="#ADD4F1" transform="translate(259,412)"/>
<path d="M0 0 C0.4125 0.639375 0.825 1.27875 1.25 1.9375 C3.25349669 4.29876396 4.08739714 4.36286812 7 5 C8.75 6.5625 8.75 6.5625 10 8 C10.33 7.01 10.66 6.02 11 5 C12.9375 5.375 12.9375 5.375 15 6 C15.33 6.66 15.66 7.32 16 8 C16.33 7.34 16.66 6.68 17 6 C18.65 6 20.3 6 22 6 C24.44989101 9.74235319 24.23086143 13.44225419 24.125 17.75 C24.11597656 18.44738281 24.10695312 19.14476562 24.09765625 19.86328125 C24.07419888 21.57566958 24.03833104 23.28788004 24 25 C24.66 25 25.32 25 26 25 C26.33 24.34 26.66 23.68 27 23 C27.66 24.32 28.32 25.64 29 27 C23.91411229 30.12977706 19.81059168 30.73613915 14 30 C9.69248823 28.9006871 5.85694994 27.54296527 3 24 C2.8125 20.8125 2.8125 20.8125 3 18 C3.66 18 4.32 18 5 18 C5 18.99 5 19.98 5 21 C5.66 21 6.32 21 7 21 C6.67 20.01 6.34 19.02 6 18 C4.6078125 18.12375 4.6078125 18.12375 3.1875 18.25 C0 18 0 18 -1.875 16.25 C-3 14 -3 14 -3 10 C-2.34 10 -1.68 10 -1 10 C-1 10.66 -1 11.32 -1 12 C-0.34 12 0.32 12 1 12 C0.835 11.13375 0.67 10.2675 0.5 9.375 C0.02781452 6.18774801 -0.07655118 3.21514973 0 0 Z " fill="#B7DDF5" transform="translate(175,414)"/>
<path d="M0 0 C5.62004217 3.3720253 5.62004217 3.3720253 8.04296875 5.6640625 C8.55923828 6.14617187 9.07550781 6.62828125 9.60742188 7.125 C10.12884766 7.62 10.65027344 8.115 11.1875 8.625 C14.79781992 12.21402746 14.79781992 12.21402746 19 15 C19 15.66 19 16.32 19 17 C19.56332031 17.24878906 20.12664063 17.49757813 20.70703125 17.75390625 C23.36898042 19.20051917 25.3988771 20.95067352 27.6875 22.9375 C34.97653987 29.01830229 42.970132 33.96368185 51 39 C46.96399822 40.34533393 45.38190311 39.23777999 41.453125 37.68359375 C40.80486755 37.4300563 40.15661011 37.17651886 39.4887085 36.91529846 C37.40557074 36.09811185 35.32785496 35.26801482 33.25 34.4375 C31.89746993 33.90474893 30.54460804 33.37283944 29.19140625 32.84179688 C25.80985842 31.51184705 22.43334232 30.16967117 19.05883789 28.82196045 C16.94296993 27.97723159 14.82604636 27.13518845 12.70898438 26.29345703 C2.27640026 22.13820013 2.27640026 22.13820013 0 21 C0 14.07 0 7.14 0 0 Z " fill="#EFF6F8" transform="translate(0,263)"/>
<path d="M0 0 C3 1 3 1 4 2 C4.52851563 1.86207031 5.05703125 1.72414062 5.6015625 1.58203125 C8.8793133 0.78661615 12.0049009 0.75140407 15.375 0.6875 C16.66148437 0.65011719 17.94796875 0.61273438 19.2734375 0.57421875 C23.55081944 1.0629343 25.68395716 2.31533993 29 5 C29 5.33 29 5.66 29 6 C27.92621094 6.02578125 26.85242188 6.0515625 25.74609375 6.078125 C16.06705943 6.41885608 10.5920627 7.07761311 3 13.5625 C-2.43213386 17.97610876 -7.03450091 19.42645913 -14 19 C-14.33 19.66 -14.66 20.32 -15 21 C-16.27445454 20.57316368 -17.54445882 20.13302798 -18.8125 19.6875 C-19.52019531 19.44386719 -20.22789062 19.20023437 -20.95703125 18.94921875 C-23.18770815 17.9127857 -24.44051633 16.8912887 -26 15 C-26.75 12.375 -26.75 12.375 -27 10 C-26.67 9.67 -26.34 9.34 -26 9 C-23.64523037 9.03266389 -21.29093302 9.10170983 -18.9375 9.1875 C-12.52467059 9.32712379 -8.44199435 8.41458469 -3 5 C-2.34 5 -1.68 5 -1 5 C-0.67 3.35 -0.34 1.7 0 0 Z M-17 21 C-16.34 21 -15.68 21 -15 21 C-15 21.66 -15 22.32 -15 23 C-15.66 23 -16.32 23 -17 23 C-17 22.34 -17 21.68 -17 21 Z " fill="#C3E4FA" transform="translate(260,240)"/>
<path d="M0 0 C2.72740314 1.76850561 3.40188167 3.03206596 5 6 C4.9921875 7.99609375 4.9921875 7.99609375 4 10 C1.3671875 11.67578125 1.3671875 11.67578125 -2.125 13.3125 C-3.04659912 13.75154663 -3.04659912 13.75154663 -3.98681641 14.19946289 C-5.98490207 15.14707884 -7.99194682 16.07371673 -10 17 C-11.42239167 17.66817207 -12.84426619 18.33744611 -14.265625 19.0078125 C-17.83654701 20.68772901 -21.41586019 22.3484846 -25 24 C-26.70108067 18.89675799 -26.56521247 14.68126566 -24.3125 9.8125 C-21.84665903 5.33937796 -18.99058935 2.94789969 -14.375 0.75 C-9.5257324 -0.32761502 -4.92519665 -0.86695419 0 0 Z " fill="#CDE8FB" transform="translate(264,200)"/>
<path d="M0 0 C11.88 0 23.76 0 36 0 C33.44186219 1.7054252 30.94253681 3.12053204 28.21875 4.53125 C27.29449219 5.01207031 26.37023437 5.49289063 25.41796875 5.98828125 C22.5 7.5 22.5 7.5 19.58203125 9.01171875 C18.65777344 9.49253906 17.73351562 9.97335937 16.78125 10.46875 C15.93626953 10.90638672 15.09128906 11.34402344 14.22070312 11.79492188 C11.82220745 13.05302975 11.82220745 13.05302975 9 15 C9.33 15.66 9.66 16.32 10 17 C8 21 8 21 0 27 C0 18.09 0 9.18 0 0 Z " fill="#EFF9FE" transform="translate(0,0)"/>
<path d="M0 0 C0.99 0.66 1.98 1.32 3 2 C2.67 3.98 2.34 5.96 2 8 C2.66 8 3.32 8 4 8 C4.33 7.34 4.66 6.68 5 6 C7.80045623 9.14591933 8.35261589 11.067064 8.1875 15.25 C8.16042969 16.14203125 8.13335937 17.0340625 8.10546875 17.953125 C8.07066406 18.62859375 8.03585938 19.3040625 8 20 C8.99 20.33 9.98 20.66 11 21 C11.6875 23.0625 11.6875 23.0625 12 25 C10.68 25 9.36 25 8 25 C8.99 25.33 9.98 25.66 11 26 C11 26.99 11 27.98 11 29 C11.99 29.33 12.98 29.66 14 30 C14.495 33.465 14.495 33.465 15 37 C13.2709226 37.02725341 11.54171824 37.04650987 9.8125 37.0625 C8.84957031 37.07410156 7.88664062 37.08570313 6.89453125 37.09765625 C4.14423487 37.00486622 1.67520409 36.62111685 -1 36 C-0.34 34.68 0.32 33.36 1 32 C1.66 32 2.32 32 3 32 C3.33 31.01 3.66 30.02 4 29 C4.33 29.66 4.66 30.32 5 31 C5 29.02 5 27.04 5 25 C3.35 25.33 1.7 25.66 0 26 C0 25.34 0 24.68 0 24 C-2.31 24 -4.62 24 -7 24 C-7 25.65 -7 27.3 -7 29 C-7.66 29 -8.32 29 -9 29 C-9 27.68 -9 26.36 -9 25 C-10.65 24.67 -12.3 24.34 -14 24 C-14.33 25.65 -14.66 27.3 -15 29 C-15.66 29 -16.32 29 -17 29 C-17 27.35 -17 25.7 -17 24 C-18.65 23.67 -20.3 23.34 -22 23 C-22 21.68 -22 20.36 -22 19 C-21.01 19 -20.02 19 -19 19 C-19 18.01 -19 17.02 -19 16 C-17.02 15.01 -15.04 14.02 -13 13 C-13 14.98 -13 16.96 -13 19 C-12.34 19 -11.68 19 -11 19 C-10.67 18.34 -10.34 17.68 -10 17 C-10 17.66 -10 18.32 -10 19 C-7.48138718 19.06996147 -5.36146024 19.10953341 -2.9375 18.375 C-0.3702365 17.87811029 0.81469177 18.67320572 3 20 C3 19.34 3 18.68 3 18 C3.66 18 4.32 18 5 18 C5 18.66 5 19.32 5 20 C5.66 20 6.32 20 7 20 C6.67 19.01 6.34 18.02 6 17 C6.4375 14.8125 6.4375 14.8125 7 13 C5.88625 13.12375 5.88625 13.12375 4.75 13.25 C2 13 2 13 -0.3125 11.1875 C-2 9 -2 9 -2 6 C-1.34 6 -0.68 6 0 6 C0 4.02 0 2.04 0 0 Z " fill="#ABD5F1" transform="translate(242,410)"/>
<path d="M0 0 C2.97 0.495 2.97 0.495 6 1 C5.88754823 5.6002998 5.74323648 9.65521909 2.8125 13.375 C-2.63617267 18.46042782 -7.05820521 19.57009089 -14.37890625 19.3515625 C-19.3345322 18.68687348 -21.94596135 16.08252618 -25.3125 12.625 C-27.20093284 9.6874378 -27.6790093 7.45064999 -28 4 C-26.02 3.67 -24.04 3.34 -22 3 C-21.1028125 4.423125 -21.1028125 4.423125 -20.1875 5.875 C-18.18437474 9.13964197 -18.18437474 9.13964197 -15 11 C-9.11489833 11.6895541 -9.11489833 11.6895541 -4.125 8.875 C-1.95519165 5.93937694 -0.90020186 3.5189709 0 0 Z " fill="#BADFFA" transform="translate(308,202)"/>
<path d="M0 0 C1.65 0.33 3.3 0.66 5 1 C5.33 2.32 5.66 3.64 6 5 C6 3.68 6 2.36 6 1 C7.65 1 9.3 1 11 1 C11 2.32 11 3.64 11 5 C11.66 5 12.32 5 13 5 C13.33 3.68 13.66 2.36 14 1 C15.65 1 17.3 1 19 1 C19 7.27 19 13.54 19 20 C17 20 15 20 13 20 C12.67 16.7 12.34 13.4 12 10 C10.68 10.33 9.36 10.66 8 11 C8.99 11.66 9.98 12.32 11 13 C10.67 14.32 10.34 15.64 10 17 C9.01 17 8.02 17 7 17 C7 17.99 7 18.98 7 20 C4.69 20.33 2.38 20.66 0 21 C-1.4783226 18.04335481 -1.06032783 15.25770263 -1 12 C0.32 12 1.64 12 3 12 C2.67 10.02 2.34 8.04 2 6 C1.01 6.495 1.01 6.495 0 7 C0 4.69 0 2.38 0 0 Z " fill="#A0C8E7" transform="translate(334,392)"/>
<path d="M0 0 C0.65077296 2.04009755 1.29539824 4.08215669 1.9375 6.125 C2.29714844 7.26195312 2.65679687 8.39890625 3.02734375 9.5703125 C4.71369607 15.51656686 5.10567724 20.87071985 5 27 C4.443125 26.29875 3.88625 25.5975 3.3125 24.875 C2.549375 23.92625 1.78625 22.9775 1 22 C0.29875 20.989375 -0.4025 19.97875 -1.125 18.9375 C-3.98072011 15.42827654 -7.55854727 14.42838381 -11.79296875 13.15234375 C-14 12 -14 12 -15.30078125 9.37890625 C-15.53152344 8.59386719 -15.76226562 7.80882812 -16 7 C-6.10344828 0 -6.10344828 0 0 0 Z " fill="#C6E3F8" transform="translate(201,283)"/>
<path d="M0 0 C0 0.99 0 1.98 0 3 C0.66 3 1.32 3 2 3 C2.33 2.34 2.66 1.68 3 1 C5 3 5 3 5.125 5.625 C5.08375 6.40875 5.0425 7.1925 5 8 C2.03 7.505 2.03 7.505 -1 7 C-1 9.31 -1 11.62 -1 14 C-0.34 14 0.32 14 1 14 C1.33 13.34 1.66 12.68 2 12 C2.33 12.99 2.66 13.98 3 15 C3.66 15 4.32 15 5 15 C4.67 16.32 4.34 17.64 4 19 C2.02 19 0.04 19 -2 19 C-2 21.31 -2 23.62 -2 26 C-3.98 26 -5.96 26 -8 26 C-8 25.01 -8 24.02 -8 23 C-7.01 22.67 -6.02 22.34 -5 22 C-5 21.34 -5 20.68 -5 20 C-5.62648438 19.87882812 -6.25296875 19.75765625 -6.8984375 19.6328125 C-7.71570313 19.46523438 -8.53296875 19.29765625 -9.375 19.125 C-10.18710937 18.96257812 -10.99921875 18.80015625 -11.8359375 18.6328125 C-14 18 -14 18 -16 16 C-15.34 14.35 -14.68 12.7 -14 11 C-13.34 11.33 -12.68 11.66 -12 12 C-12 12.66 -12 13.32 -12 14 C-10.35 14 -8.7 14 -7 14 C-7 13.34 -7 12.68 -7 12 C-6.34 11.67 -5.68 11.34 -5 11 C-4.34786708 8.97536745 -4.34786708 8.97536745 -4 7 C-6.31 6.34 -8.62 5.68 -11 5 C-11 4.34 -11 3.68 -11 3 C-10.4225 2.87625 -9.845 2.7525 -9.25 2.625 C-6.97341328 2.07474322 -6.97341328 2.07474322 -4.9375 0.9375 C-3 0 -3 0 0 0 Z " fill="#9AC4E3" transform="translate(347,421)"/>
<path d="M0 0 C3.83508741 5.75263111 3.11884965 12.31800851 3 19 C-1.71403788 18.52060632 -5.66579301 18.03165952 -10 16 C-10 14.68 -10 13.36 -10 12 C-10.66 11.67 -11.32 11.34 -12 11 C-11.34 11 -10.68 11 -10 11 C-9.97873047 10.07767578 -9.97873047 10.07767578 -9.95703125 9.13671875 C-9.56661046 2.52066907 -9.56661046 2.52066907 -6.6875 -0.125 C-3.82284778 -1.05767747 -2.69484246 -1.30095843 0 0 Z " fill="#B1DAF7" transform="translate(350,189)"/>
<path d="M0 0 C0.33 0 0.66 0 1 0 C1 8.91 1 17.82 1 27 C-0.98 26.01 -2.96 25.02 -5 24 C-7.0998823 24.75825204 -7.0998823 24.75825204 -9 26 C-11.75 26.125 -11.75 26.125 -14 26 C-12.60855119 21.29489475 -10.59819398 17.21086559 -8.125 13 C-7.78597656 12.40960938 -7.44695312 11.81921875 -7.09765625 11.2109375 C-4.87357082 7.37164174 -2.55545523 3.62852518 0 0 Z " fill="#B2DAF7" transform="translate(352,162)"/>
<path d="M0 0 C2 2 2 2 2 5 C2.33 3.68 2.66 2.36 3 1 C3.66 1 4.32 1 5 1 C5.33 1.99 5.66 2.98 6 4 C7.98 4 9.96 4 12 4 C12 4.99 12 5.98 12 7 C12.99 7 13.98 7 15 7 C15.33 6.34 15.66 5.68 16 5 C16.99 5 17.98 5 19 5 C19 5.66 19 6.32 19 7 C19.52078125 6.80535156 20.0415625 6.61070312 20.578125 6.41015625 C23.9152867 5.84499177 26.47986399 6.619966 29.75 7.4375 C30.92046875 7.72496094 32.0909375 8.01242187 33.296875 8.30859375 C34.18890625 8.53675781 35.0809375 8.76492188 36 9 C36 9.99 36 10.98 36 12 C23.80491561 13.31674499 12.13598161 12.46468744 0 11 C0 7.37 0 3.74 0 0 Z " fill="#E8F4F7" transform="translate(0,352)"/>
<path d="M0 0 C1.98 0.495 1.98 0.495 4 1 C4.33 1.66 4.66 2.32 5 3 C6.65 2.67 8.3 2.34 10 2 C10.33 3.65 10.66 5.3 11 7 C10.01 7 9.02 7 8 7 C7.67 9.31 7.34 11.62 7 14 C8.32 14.33 9.64 14.66 11 15 C10.95875 16.2375 10.9175 17.475 10.875 18.75 C10.86341709 22.01637962 11.1431298 24.2146947 13 27 C14.65 27 16.3 27 18 27 C18 29.31 18 31.62 18 34 C17.34 33.67 16.68 33.34 16 33 C16 32.34 16 31.68 16 31 C15.34 31 14.68 31 14 31 C14.33 33.31 14.66 35.62 15 38 C14.01 38 13.02 38 12 38 C11.71125 36.865625 11.4225 35.73125 11.125 34.5625 C10.75375 33.386875 10.3825 32.21125 10 31 C9.34 30.67 8.68 30.34 8 30 C8 29.01 8 28.02 8 27 C7.34 27 6.68 27 6 27 C6 28.98 6 30.96 6 33 C5.67 33 5.34 33 5 33 C5 30.69 5 28.38 5 26 C5.99 25.67 6.98 25.34 8 25 C7.67 24.01 7.34 23.02 7 22 C6.34 21.67 5.68 21.34 5 21 C4.65625 18.8203125 4.65625 18.8203125 4.5 16.125 C4.28394271 12.41961747 4.12738529 11.19107794 2 8 C1.01 8.33 0.02 8.66 -1 9 C-0.67 6.03 -0.34 3.06 0 0 Z " fill="#C9E6FA" transform="translate(245,409)"/>
<path d="M0 0 C1.98 1.32 3.96 2.64 6 4 C5.01 5.485 5.01 5.485 4 7 C5.32 8.32 6.64 9.64 8 11 C6.68 12.65 5.36 14.3 4 16 C4.66 16 5.32 16 6 16 C5.34 17.32 4.68 18.64 4 20 C3.01 19.67 2.02 19.34 1 19 C-1.80143721 18.81014356 -4.60055286 18.6835806 -7.40625 18.57421875 C-10 18 -10 18 -11.84375 15.95703125 C-12.2253125 15.31121094 -12.606875 14.66539062 -13 14 C-12.360625 13.896875 -11.72125 13.79375 -11.0625 13.6875 C-10.0415625 13.3471875 -10.0415625 13.3471875 -9 13 C-8.67 12.01 -8.34 11.02 -8 10 C-6.0625 9.4375 -6.0625 9.4375 -4 9 C-3.34 8.34 -2.68 7.68 -2 7 C-2.99 6.34 -3.98 5.68 -5 5 C-3.35 3.35 -1.7 1.7 0 0 Z " fill="#9DC7E6" transform="translate(340,320)"/>
<path d="M0 0 C2.86234517 2.86234517 3.47015554 6.09902017 4 10 C3.90282302 13.82026999 3.72433795 17.5513241 2 21 C-5.75 21.125 -5.75 21.125 -8 20 C-8.86679393 13.39069625 -7.98871099 10.35877621 -4 4.9375 C-2.68683738 3.27552856 -1.35988197 1.62396619 0 0 Z " fill="#C8E7FB" transform="translate(325,152)"/>
<path d="M0 0 C0 0.66 0 1.32 0 2 C4.61507774 3.04214691 4.61507774 3.04214691 9 2 C10.71233688 2.0870204 12.42175406 2.24097162 14.125 2.4375 C15.03507812 2.53933594 15.94515625 2.64117187 16.8828125 2.74609375 C17.58148438 2.82988281 18.28015625 2.91367187 19 3 C20.0625 5.375 20.0625 5.375 21 8 C20.67 8.66 20.34 9.32 20 10 C18.02 10 16.04 10 14 10 C13.67 9.34 13.34 8.68 13 8 C13 8.66 13 9.32 13 10 C9.25 11.125 9.25 11.125 7 10 C7 8.35 7 6.7 7 5 C6.195625 5.680625 6.195625 5.680625 5.375 6.375 C1.98359528 8.69543481 -1.22017317 10.28102529 -5.375 9.625 C-5.91125 9.41875 -6.4475 9.2125 -7 9 C-7 6.69 -7 4.38 -7 2 C-2.25 0 -2.25 0 0 0 Z " fill="#C2E3F9" transform="translate(193,406)"/>
<path d="M0 0 C0.33 0 0.66 0 1 0 C1 10.89 1 21.78 1 33 C-1.64 33 -4.28 33 -7 33 C-7 30.69 -7 28.38 -7 26 C-5.02 25.67 -3.04 25.34 -1 25 C-0.67 24.01 -0.34 23.02 0 22 C-0.66 22 -1.32 22 -2 22 C-2.33 21.34 -2.66 20.68 -3 20 C-3.99 20.33 -4.98 20.66 -6 21 C-6 18.69 -6 16.38 -6 14 C-3.03 14.495 -3.03 14.495 0 15 C-0.66 13.02 -1.32 11.04 -2 9 C-2.99 9.33 -3.98 9.66 -5 10 C-5 7.69 -5 5.38 -5 3 C-3.35 3 -1.7 3 0 3 C0 2.01 0 1.02 0 0 Z " fill="#A7CDE9" transform="translate(352,414)"/>
<path d="M0 0 C6.27 0 12.54 0 19 0 C15 3 15 3 11.8125 4.4375 C8.85589727 5.69281883 8.85589727 5.69281883 8.125 8.1875 C8.08375 8.785625 8.0425 9.38375 8 10 C8.66 10.33 9.32 10.66 10 11 C8.71283353 12.00578589 7.42011342 13.00446798 6.125 14 C5.04605469 14.8353125 5.04605469 14.8353125 3.9453125 15.6875 C2 17 2 17 0 17 C0 11.39 0 5.78 0 0 Z " fill="#EBF7FE" transform="translate(0,0)"/>
<path d="M0 0 C1.65 0 3.3 0 5 0 C5 1.98 5 3.96 5 6 C5.66 6 6.32 6 7 6 C7 4.35 7 2.7 7 1 C7.33 1.99 7.66 2.98 8 4 C8.66 4 9.32 4 10 4 C10 3.01 10 2.02 10 1 C10.66 1 11.32 1 12 1 C11.67 2.32 11.34 3.64 11 5 C10.01 5 9.02 5 8 5 C7.67 6.65 7.34 8.3 7 10 C6.67 9.34 6.34 8.68 6 8 C5.34 8 4.68 8 4 8 C4.89335797 10.35785318 4.89335797 10.35785318 8.0625 11.125 C9.5165625 11.558125 9.5165625 11.558125 11 12 C10.67 13.65 10.34 15.3 10 17 C9.34 17 8.68 17 8 17 C8 17.66 8 18.32 8 19 C6.35 19 4.7 19 3 19 C2.67 18.34 2.34 17.68 2 17 C1.34 17.33 0.68 17.66 0 18 C0 12 0 6 0 0 Z " fill="#9DC6E4" transform="translate(332,416)"/>
<path d="M0 0 C-0.30249079 3.32739873 -0.71234171 5.5627594 -2.5625 8.375 C-5.40090403 10.26726936 -7.62487336 10.6262912 -11.02734375 10.4609375 C-14.40805988 9.67098799 -15.9895597 7.70152916 -18 5 C-18 4.01 -18 3.02 -18 2 C-11.85221129 0.3722167 -6.35987804 -0.20190089 0 0 Z " fill="#BADFFA" transform="translate(306,202)"/>
<path d="M0 0 C0.88150048 2.42336435 1.18494723 3.56037755 0.16723633 5.97949219 C-0.27338135 6.66172852 -0.71399902 7.34396484 -1.16796875 8.046875 C-1.64943359 8.81 -2.13089844 9.573125 -2.62695312 10.359375 C-3.14193359 11.14828125 -3.65691406 11.9371875 -4.1875 12.75 C-7.79663064 18.38193337 -11.11146435 23.96096126 -14 30 C-13.33613281 29.73703125 -12.67226563 29.4740625 -11.98828125 29.203125 C-4.84942085 26.66023166 -4.84942085 26.66023166 -0.875 28.25 C1.77903232 32.14258073 1.43979836 35.42609701 1 40 C0.67 40 0.34 40 0 40 C-0.66 37.36 -1.32 34.72 -2 32 C-5.8777089 30.67343821 -5.8777089 30.67343821 -9.19140625 31.9296875 C-13.59908571 33.16835845 -17.39873298 33.22612077 -21.9375 33.125 C-22.71673828 33.11597656 -23.49597656 33.10695312 -24.29882812 33.09765625 C-26.19935447 33.07433691 -28.09972008 33.03847586 -30 33 C-30 32.67 -30 32.34 -30 32 C-23.565 31.505 -23.565 31.505 -17 31 C-16.29037109 29.40285156 -16.29037109 29.40285156 -15.56640625 27.7734375 C-11.11442048 17.93969286 -6.09661553 8.90501019 0 0 Z " fill="#D9F0FC" transform="translate(352,158)"/>
<path d="M0 0 C0.19393875 2.14526099 0.37998676 4.29123677 0.5625 6.4375 C0.66691406 7.63246094 0.77132813 8.82742188 0.87890625 10.05859375 C0.91886719 11.02925781 0.95882813 11.99992187 1 13 C-0.80466983 14.80466983 -3.73102816 14.41492558 -6.1875 14.62109375 C-6.785625 14.74613281 -7.38375 14.87117188 -8 15 C-8.33 15.66 -8.66 16.32 -9 17 C-9.66 16.67 -10.32 16.34 -11 16 C-11.9609375 12.74609375 -11.9609375 12.74609375 -12 9 C-9.7265625 6.34765625 -9.7265625 6.34765625 -6.625 4.0625 C-5.60664063 3.29035156 -4.58828125 2.51820313 -3.5390625 1.72265625 C-1 0 -1 0 0 0 Z " fill="#A0CAE7" transform="translate(352,300)"/>
<path d="M0 0 C2.97 0.495 2.97 0.495 6 1 C5.8453125 2.1446875 5.8453125 2.1446875 5.6875 3.3125 C5.790625 4.199375 5.89375 5.08625 6 6 C8.40858714 7.8624438 8.40858714 7.8624438 11 9 C8.11593757 12.40843742 6.6291735 13.86591384 2.1875 14.8125 C0.6096875 14.9053125 0.6096875 14.9053125 -1 15 C-2.61949011 12.42786866 -3.04408751 11.32330841 -2.625 8.25 C-2.41875 7.5075 -2.2125 6.765 -2 6 C-0.68 5.67 0.64 5.34 2 5 C2 4.34 2 3.68 2 3 C1.34 2.67 0.68 2.34 0 2 C0 1.34 0 0.68 0 0 Z " fill="#BCDFF7" transform="translate(217,403)"/>
<path d="M0 0 C1.32 0.66 2.64 1.32 4 2 C3.67 4.31 3.34 6.62 3 9 C-0.38047418 10.01006939 -3.54147056 10.19764268 -7.0625 10.25 C-8.62677734 10.28867187 -8.62677734 10.28867187 -10.22265625 10.328125 C-13 10 -13 10 -14.87109375 8.484375 C-15.24363281 7.99453125 -15.61617187 7.5046875 -16 7 C-14.68825887 6.4980125 -13.37558403 5.99846423 -12.0625 5.5 C-11.33160156 5.2215625 -10.60070312 4.943125 -9.84765625 4.65625 C-7.51097849 3.82630949 -6.64581004 4 -4 4 C-3.67 3.34 -3.34 2.68 -3 2 C-2.34 2 -1.68 2 -1 2 C-0.67 2.66 -0.34 3.32 0 4 C0 2.68 0 1.36 0 0 Z " fill="#BFE2F4" transform="translate(167,418)"/>
<path d="M0 0 C0.33 0 0.66 0 1 0 C1.02578125 0.7528125 1.0515625 1.505625 1.078125 2.28125 C1.47727498 9.75624057 2.68550118 16.55486134 4.80371094 23.70507812 C5.29426789 25.44677238 5.65674516 27.22339618 6 29 C5.34 29.99 4.68 30.98 4 32 C3.01 29.36 2.02 26.72 1 24 C-0.65 24 -2.3 24 -4 24 C-4 23.34 -4 22.68 -4 22 C-4.66 21.67 -5.32 21.34 -6 21 C-5.01 20.67 -4.02 20.34 -3 20 C-1.54267938 13.35009036 -0.54863863 6.7857936 0 0 Z " fill="#CBE8F8" transform="translate(241,376)"/>
<path d="M0 0 C0.66 0.33 1.32 0.66 2 1 C2 1.66 2 2.32 2 3 C4.64 3 7.28 3 10 3 C10 3.99 10 4.98 10 6 C9.01 6.33 8.02 6.66 7 7 C5.78130071 9.50447516 5.78130071 9.50447516 5 12 C0.545 12.495 0.545 12.495 -4 13 C-3.52343588 11.20763933 -3.04366502 9.41613103 -2.5625 7.625 C-2.29566406 6.62726563 -2.02882812 5.62953125 -1.75390625 4.6015625 C-1 2 -1 2 0 0 Z " fill="#B1D7F2" transform="translate(249,344)"/>
<path d="M0 0 C2.375 0.25 2.375 0.25 5 1 C6.3125 3.0625 6.3125 3.0625 7 5 C5.35 5.33 3.7 5.66 2 6 C2 6.66 2 7.32 2 8 C1.34 8 0.68 8 0 8 C0 5.36 0 2.72 0 0 Z M8 1 C9.65 1 11.3 1 13 1 C14 4 14 4 14 8 C12 8 10 8 8 8 C6.875 3.25 6.875 3.25 8 1 Z " fill="#BBDEF6" transform="translate(264,435)"/>
<path d="M0 0 C3.63 0.33 7.26 0.66 11 1 C11.33 2.32 11.66 3.64 12 5 C10.68 5.33 9.36 5.66 8 6 C8 6.66 8 7.32 8 8 C7.236875 7.814375 6.47375 7.62875 5.6875 7.4375 C2.91032625 6.77180827 2.91032625 6.77180827 0 8 C0 5.36 0 2.72 0 0 Z " fill="#D5ECFB" transform="translate(58,330)"/>
<path d="M0 0 C3.63 0 7.26 0 11 0 C11.33 1.32 11.66 2.64 12 4 C10.68 4.33 9.36 4.66 8 5 C8 5.99 8 6.98 8 8 C5.36 7.67 2.72 7.34 0 7 C0 4.69 0 2.38 0 0 Z " fill="#C3E4FA" transform="translate(229,422)"/>
<path d="M0 0 C0.99 0.33 1.98 0.66 3 1 C2.67 2.98 2.34 4.96 2 7 C-1.63 7 -5.26 7 -9 7 C-9 5.02 -9 3.04 -9 1 C-7.88625 1.020625 -6.7725 1.04125 -5.625 1.0625 C-2.16784079 1.26380718 -2.16784079 1.26380718 0 0 Z " fill="#C7E6F9" transform="translate(149,440)"/>
<path d="M0 0 C-3.17882948 2.54920625 -6.49268645 4.41153172 -10.125 6.25 C-11.70667969 7.06210938 -11.70667969 7.06210938 -13.3203125 7.890625 C-14.20460938 8.25671875 -15.08890625 8.6228125 -16 9 C-16.66 8.67 -17.32 8.34 -18 8 C-16.68 6.68 -15.36 5.36 -14 4 C-14.94875 4.515625 -15.8975 5.03125 -16.875 5.5625 C-17.90625 6.036875 -18.9375 6.51125 -20 7 C-20.66 6.67 -21.32 6.34 -22 6 C-14.51697853 1.13675974 -8.94890855 -0.93470225 0 0 Z " fill="#E3F4FE" transform="translate(30,0)"/>
<path d="M0 0 C3.63 0 7.26 0 11 0 C11.33 1.32 11.66 2.64 12 4 C10.68 4.33 9.36 4.66 8 5 C8 5.66 8 6.32 8 7 C5.36 7 2.72 7 0 7 C0 4.69 0 2.38 0 0 Z " fill="#BDDEF6" transform="translate(317,427)"/>
<path d="M0 0 C4.75207471 -0.43200679 7.78210698 1.01510917 12 3 C12 3.66 12 4.32 12 5 C9.69 6.32 7.38 7.64 5 9 C4.67 8.34 4.34 7.68 4 7 C2.68 7 1.36 7 0 7 C0 4.69 0 2.38 0 0 Z " fill="#BDE0F7" transform="translate(201,397)"/>
<path d="M0 0 C3.63 0.33 7.26 0.66 11 1 C11 2.32 11 3.64 11 5 C10.01 5 9.02 5 8 5 C8 5.99 8 6.98 8 8 C6.35 8 4.7 8 3 8 C2.67 7.34 2.34 6.68 2 6 C1.01 6.495 1.01 6.495 0 7 C0 4.69 0 2.38 0 0 Z " fill="#C2E3F9" transform="translate(215,421)"/>
<path d="M0 0 C3 1 3 1 4 3 C4.33 2.34 4.66 1.68 5 1 C6.65 1 8.3 1 10 1 C10 2.65 10 4.3 10 6 C8.68 6 7.36 6 6 6 C6 6.66 6 7.32 6 8 C5.236875 7.814375 4.47375 7.62875 3.6875 7.4375 C0.91032625 6.77180827 0.91032625 6.77180827 -2 8 C-1.125 1.125 -1.125 1.125 0 0 Z " fill="#C6E5FA" transform="translate(187,419)"/>
<path d="M0 0 C2.64 0.33 5.28 0.66 8 1 C8 1.99 8 2.98 8 4 C8.99 4 9.98 4 11 4 C11.33 3.34 11.66 2.68 12 2 C11.67 3.32 11.34 4.64 11 6 C10.34 6 9.68 6 9 6 C9 6.66 9 7.32 9 8 C5.80097361 8.08886184 3.07322544 7.91058531 0 7 C0 4.69 0 2.38 0 0 Z " fill="#B5D8F2" transform="translate(318,403)"/>
<path d="M0 0 C3.63 0 7.26 0 11 0 C11.33 1.32 11.66 2.64 12 4 C10.68 4.33 9.36 4.66 8 5 C8 5.66 8 6.32 8 7 C7.34 7 6.68 7 6 7 C5.67 6.34 5.34 5.68 5 5 C5 5.66 5 6.32 5 7 C3.35 7 1.7 7 0 7 C0 4.69 0 2.38 0 0 Z " fill="#D3EBFB" transform="translate(44,318)"/>
<path d="M0 0 C1.32 0.33 2.64 0.66 4 1 C4 4.3 4 7.6 4 11 C4.66 11 5.32 11 6 11 C6.33 10.34 6.66 9.68 7 9 C7.99 9.66 8.98 10.32 10 11 C9.67 12.65 9.34 14.3 9 16 C5.83547824 15.15612753 3.51469594 14.46488666 1.0625 12.25 C-0.38131938 9.19250014 0.19632194 7.21471226 1 4 C0.01 3.34 -0.98 2.68 -2 2 C-1.34 1.34 -0.68 0.68 0 0 Z " fill="#98C3E3" transform="translate(343,401)"/>
<path d="M0 0 C0.99 0.33 1.98 0.66 3 1 C3 7.6 3 14.2 3 21 C2.67 20.34 2.34 19.68 2 19 C1.01 19 0.02 19 -1 19 C-1.02715383 17.25008666 -1.04646551 15.50005055 -1.0625 13.75 C-1.07410156 12.77546875 -1.08570313 11.8009375 -1.09765625 10.796875 C-1.01113099 8.31879162 -0.62337667 6.37570322 0 4 C0 2.68 0 1.36 0 0 Z " fill="#B0D8F1" transform="translate(350,230)"/>
<path d="M0 0 C1.65 0 3.3 0 5 0 C5.33 1.32 5.66 2.64 6 4 C6.33 2.68 6.66 1.36 7 0 C8.65 0.33 10.3 0.66 12 1 C11.67 2.32 11.34 3.64 11 5 C10.01 5 9.02 5 8 5 C8 5.66 8 6.32 8 7 C7.236875 6.814375 6.47375 6.62875 5.6875 6.4375 C2.91032625 5.77180827 2.91032625 5.77180827 0 7 C0 4.69 0 2.38 0 0 Z " fill="#D4ECFB" transform="translate(28,341)"/>
<path d="M0 0 C1.65 0 3.3 0 5 0 C5 1.65 5 3.3 5 5 C5.66 3.35 6.32 1.7 7 0 C8.65 0.33 10.3 0.66 12 1 C11.67 2.32 11.34 3.64 11 5 C10.01 5 9.02 5 8 5 C8 5.66 8 6.32 8 7 C5.36 7 2.72 7 0 7 C0 4.69 0 2.38 0 0 Z " fill="#BEE0F8" transform="translate(287,437)"/>
<path d="M0 0 C0.721875 0.185625 1.44375 0.37125 2.1875 0.5625 C5.13982052 1.02174986 7.11300664 0.62421478 10 0 C10.66 0.33 11.32 0.66 12 1 C11.67 2.32 11.34 3.64 11 5 C10.01 5 9.02 5 8 5 C8 5.66 8 6.32 8 7 C7.34 7 6.68 7 6 7 C5.67 6.01 5.34 5.02 5 4 C4.54625 4.495 4.0925 4.99 3.625 5.5 C2 7 2 7 0 7 C0 4.69 0 2.38 0 0 Z " fill="#CFEAFB" transform="translate(102,333)"/>
<path d="M0 0 C4.62 0 9.24 0 14 0 C4.66666667 7 4.66666667 7 0 7 C0 4.69 0 2.38 0 0 Z " fill="#E7F5FE" transform="translate(0,0)"/>
<path d="M0 0 C1.65 0 3.3 0 5 0 C5 1.65 5 3.3 5 5 C5.33 3.35 5.66 1.7 6 0 C7.65 0 9.3 0 11 0 C11.33 1.32 11.66 2.64 12 4 C11.34 4 10.68 4 10 4 C10 3.01 10 2.02 10 1 C9.34 1 8.68 1 8 1 C8 2.98 8 4.96 8 7 C6.35 7 4.7 7 3 7 C3 6.34 3 5.68 3 5 C2.34 5 1.68 5 1 5 C0.67 5.66 0.34 6.32 0 7 C0 4.69 0 2.38 0 0 Z " fill="#C4E4FA" transform="translate(274,413)"/>
<path d="M0 0 C0.66 0 1.32 0 2 0 C2.8125 2.1875 2.8125 2.1875 3 5 C0.625 7.75 0.625 7.75 -2 10 C-2.33 10.33 -2.66 10.66 -3 11 C-4.99958364 11.04080783 -7.00045254 11.04254356 -9 11 C-8.67 9.68 -8.34 8.36 -8 7 C-8.66 7 -9.32 7 -10 7 C-10 6.34 -10 5.68 -10 5 C-7.0625 5.375 -7.0625 5.375 -4 6 C-3.67 6.66 -3.34 7.32 -3 8 C-2.01 5.36 -1.02 2.72 0 0 Z " fill="#BBDBF2" transform="translate(276,291)"/>
<path d="M0 0 C1.65 0 3.3 0 5 0 C5 1.98 5 3.96 5 6 C5.66 6 6.32 6 7 6 C7 4.35 7 2.7 7 1 C7.33 1.99 7.66 2.98 8 4 C8.66 4 9.32 4 10 4 C10 3.01 10 2.02 10 1 C10.66 1 11.32 1 12 1 C11.67 2.32 11.34 3.64 11 5 C10.01 5 9.02 5 8 5 C8 5.66 8 6.32 8 7 C7.236875 6.814375 6.47375 6.62875 5.6875 6.4375 C2.91032625 5.77180827 2.91032625 5.77180827 0 7 C0 4.69 0 2.38 0 0 Z " fill="#C3E3F8" transform="translate(332,416)"/>
<path d="M0 0 C0.33 0.66 0.66 1.32 1 2 C0.06421005 4.35981813 -0.93347808 6.69631264 -2 9 C-4.97 9 -7.94 9 -11 9 C-7.56638098 5.36440339 -4.2026393 2.63886654 0 0 Z " fill="#B3DBF8" transform="translate(338,180)"/>
<path d="M0 0 C1.32 0.33 2.64 0.66 4 1 C3.125 5.875 3.125 5.875 2 7 C-0.67058851 7.14115161 -3.32432238 7.04247107 -6 7 C-6 6.34 -6 5.68 -6 5 C-5.34 5 -4.68 5 -4 5 C-2.61767557 3.37373596 -1.28062485 1.7074998 0 0 Z " fill="#C8E7F8" transform="translate(133,440)"/>
<path d="M0 0 C0.66 0 1.32 0 2 0 C2 1.32 2 2.64 2 4 C2.66 2.68 3.32 1.36 4 0 C5.65 0.33 7.3 0.66 9 1 C8.67 2.32 8.34 3.64 8 5 C7.01 5 6.02 5 5 5 C5 5.66 5 6.32 5 7 C3.35 6.67 1.7 6.34 0 6 C0 4.02 0 2.04 0 0 Z " fill="#D5EDFB" transform="translate(0,375)"/>
<path d="M0 0 C0.66 0 1.32 0 2 0 C2.144375 1.2375 2.28875 2.475 2.4375 3.75 C2.78688502 6.56504499 3.20379366 9.2701497 4 12 C2.02 12 0.04 12 -2 12 C-2 11.34 -2 10.68 -2 10 C-2.66 9.67 -3.32 9.34 -4 9 C-3.01 8.67 -2.02 8.34 -1 8 C-0.67 5.36 -0.34 2.72 0 0 Z " fill="#A9D2EF" transform="translate(239,388)"/>
<path d="M0 0 C1.9375 0.6875 1.9375 0.6875 4 2 C4.75 4.625 4.75 4.625 5 7 C4.01 7 3.02 7 2 7 C2 7.66 2 8.32 2 9 C1.34 9 0.68 9 0 9 C0 8.34 0 7.68 0 7 C-0.99 6.67 -1.98 6.34 -3 6 C-3 3 -3 3 -1.5 1.3125 C-0.7575 0.6628125 -0.7575 0.6628125 0 0 Z " fill="#B8DCF5" transform="translate(246,312)"/>
<path d="M0 0 C1.65 0 3.3 0 5 0 C6 3 6 3 6 7 C4.02 7 2.04 7 0 7 C0 4.69 0 2.38 0 0 Z " fill="#BDDEF4" transform="translate(345,440)"/>
<path d="M0 0 C1.65 0.33 3.3 0.66 5 1 C5 3.31 5 5.62 5 8 C4.34 8 3.68 8 3 8 C3 7.34 3 6.68 3 6 C2.34 6 1.68 6 1 6 C1 6.66 1 7.32 1 8 C0.34 8 -0.32 8 -1 8 C-0.67 5.36 -0.34 2.72 0 0 Z " fill="#C6E5FA" transform="translate(185,431)"/>
<path d="M0 0 C0 2.31 0 4.62 0 7 C-0.66 7 -1.32 7 -2 7 C-2.33 6.34 -2.66 5.68 -3 5 C-3.33 5.66 -3.66 6.32 -4 7 C-4.66 7 -5.32 7 -6 7 C-6 4.69 -6 2.38 -6 0 C-3.50907189 -1.24546405 -2.58919267 -0.7767578 0 0 Z " fill="#BDDFF6" transform="translate(309,403)"/>
<path d="M0 0 C2.35448165 2.55068845 2.98327924 3.71017358 3.1875 7.25 C3.125625 8.1575 3.06375 9.065 3 10 C1.35 10 -0.3 10 -2 10 C-2.25 3.375 -2.25 3.375 0 0 Z " fill="#C1E2F9" transform="translate(232,407)"/>
<path d="M0 0 C2.475 0.495 2.475 0.495 5 1 C5.33 1.99 5.66 2.98 6 4 C4.71034824 5.37562854 3.37310707 6.70766393 2 8 C1.34 8 0.68 8 0 8 C0 5.36 0 2.72 0 0 Z " fill="#C5E5F9" transform="translate(178,407)"/>
<path d="M0 0 C2.15377564 2.62198774 3.40072174 4.64404172 4 8 C2.02 8.66 0.04 9.32 -2 10 C-2.25 3.375 -2.25 3.375 0 0 Z " fill="#C7E6FA" transform="translate(189,382)"/>
<path d="M0 0 C2.0625 0.4375 2.0625 0.4375 4 1 C4 3.31 4 5.62 4 8 C2.33333333 8 0.66666667 8 -1 8 C-1.04241723 5.66705225 -1.04092937 3.33297433 -1 1 C-0.67 0.67 -0.34 0.34 0 0 Z " fill="#C2E3FA" transform="translate(244,434)"/>
<path d="M0 0 C2.475 0.495 2.475 0.495 5 1 C5 3.31 5 5.62 5 8 C3.35 7.67 1.7 7.34 0 7 C0 4.69 0 2.38 0 0 Z " fill="#C1E2F9" transform="translate(273,424)"/>
<path d="M0 0 C1.65 0 3.3 0 5 0 C5 2.31 5 4.62 5 7 C3.35 7 1.7 7 0 7 C0 4.69 0 2.38 0 0 Z " fill="#BEDFF6" transform="translate(303,414)"/>
<path d="M0 0 C1.65 0 3.3 0 5 0 C5 2.31 5 4.62 5 7 C3.35 7 1.7 7 0 7 C0 4.69 0 2.38 0 0 Z " fill="#C0E0F7" transform="translate(318,403)"/>
<path d="M0 0 C1.32 0 2.64 0 4 0 C4 2.31 4 4.62 4 7 C2.35 7 0.7 7 -1 7 C-1.04254356 5.00045254 -1.04080783 2.99958364 -1 1 C-0.67 0.67 -0.34 0.34 0 0 Z " fill="#C9E7FB" transform="translate(172,407)"/>
<path d="M0 0 C1.65 0 3.3 0 5 0 C5 2.31 5 4.62 5 7 C3.35 7 1.7 7 0 7 C0 4.69 0 2.38 0 0 Z " fill="#BEDEF5" transform="translate(348,393)"/>
<path d="M0 0 C2.475 0.495 2.475 0.495 5 1 C5 2.98 5 4.96 5 7 C3.35 7 1.7 7 0 7 C0 4.69 0 2.38 0 0 Z " fill="#C4E5FA" transform="translate(214,433)"/>
<path d="M0 0 C1.65 0 3.3 0 5 0 C5 2.31 5 4.62 5 7 C3.33333333 7 1.66666667 7 0 7 C0 4.69 0 2.38 0 0 Z " fill="#BFE0F7" transform="translate(302,426)"/>
<path d="M0 0 C1.65 0 3.3 0 5 0 C5.33 1.32 5.66 2.64 6 4 C4.68 4.33 3.36 4.66 2 5 C2 5.66 2 6.32 2 7 C1.34 7 0.68 7 0 7 C0 4.69 0 2.38 0 0 Z " fill="#BDDEF5" transform="translate(339,404)"/>
<path d="M0 0 C1.65 0 3.3 0 5 0 C5 2.31 5 4.62 5 7 C3.33333333 7 1.66666667 7 0 7 C0 4.69 0 2.38 0 0 Z " fill="#CFEAFA" transform="translate(69,402)"/>
<path d="M0 0 C0.99 0.33 1.98 0.66 3 1 C3.33 2.98 3.66 4.96 4 7 C2 7 0 7 -2 7 C-2 5.02 -2 3.04 -2 1 C-1.34 0.67 -0.68 0.34 0 0 Z " fill="#C7E6F9" transform="translate(174,395)"/>
<path d="M0 0 C1.65 0 3.3 0 5 0 C5 2.31 5 4.62 5 7 C3.33333333 7 1.66666667 7 0 7 C0 4.69 0 2.38 0 0 Z " fill="#D6EDFB" transform="translate(29,317)"/>
<path d="M0 0 C1.65 0 3.3 0 5 0 C5.33 1.32 5.66 2.64 6 4 C4.68 4.33 3.36 4.66 2 5 C2 5.66 2 6.32 2 7 C1.34 7 0.68 7 0 7 C0 4.69 0 2.38 0 0 Z " fill="#BFE0F7" transform="translate(308,438)"/>
<path d="M0 0 C2.475 0.495 2.475 0.495 5 1 C5 2.98 5 4.96 5 7 C3.35 7 1.7 7 0 7 C0 4.69 0 2.38 0 0 Z " fill="#C1E1F8" transform="translate(331,439)"/>
<path d="M0 0 C2.475 0.495 2.475 0.495 5 1 C5 2.98 5 4.96 5 7 C3.33333333 7 1.66666667 7 0 7 C0 4.69 0 2.38 0 0 Z " fill="#BEDFF6" transform="translate(316,438)"/>
<path d="M0 0 C2.475 0.495 2.475 0.495 5 1 C5 2.98 5 4.96 5 7 C3.33333333 7 1.66666667 7 0 7 C0 4.69 0 2.38 0 0 Z " fill="#BFDFF6" transform="translate(346,428)"/>
<path d="M0 0 C2.475 0.495 2.475 0.495 5 1 C5 3.31 5 5.62 5 8 C4.34 8 3.68 8 3 8 C2.67 7.34 2.34 6.68 2 6 C1.01 6.495 1.01 6.495 0 7 C0 4.69 0 2.38 0 0 Z " fill="#BFE0F6" transform="translate(332,427)"/>
<path d="M0 0 C1.65 0 3.3 0 5 0 C5 2.31 5 4.62 5 7 C3.33333333 7 1.66666667 7 0 7 C0 4.69 0 2.38 0 0 Z " fill="#C3E3F9" transform="translate(259,412)"/>
<path d="M0 0 C2.475 0.495 2.475 0.495 5 1 C5 2.32 5 3.64 5 5 C4.01 5 3.02 5 2 5 C2 5.99 2 6.98 2 8 C1.34 8 0.68 8 0 8 C0 5.36 0 2.72 0 0 Z " fill="#C4E4FA" transform="translate(236,410)"/>
<path d="M0 0 C2.475 0.495 2.475 0.495 5 1 C5 3.31 5 5.62 5 8 C4.34 8 3.68 8 3 8 C2.67 7.34 2.34 6.68 2 6 C1.01 6.495 1.01 6.495 0 7 C0 4.69 0 2.38 0 0 Z " fill="#BEDEF5" transform="translate(334,392)"/>
<path d="M0 0 C1.32 0.66 2.64 1.32 4 2 C2.75453595 5.73639216 1.36595047 6.18756513 -2 8 C-2.33 6.02 -2.66 4.04 -3 2 C-2.01 1.34 -1.02 0.68 0 0 Z " fill="#C7E6FA" transform="translate(195,396)"/>
<path d="M0 0 C3.3 0 6.6 0 10 0 C10 3.63 10 7.26 10 11 C8.68 10.67 7.36 10.34 6 10 C6.99 7.03 7.98 4.06 9 1 C4.545 1.495 4.545 1.495 0 2 C0 1.34 0 0.68 0 0 Z " fill="#B8DBF3" transform="translate(230,375)"/>
<path d="M0 0 C2.64 0 5.28 0 8 0 C7.34 2.31 6.68 4.62 6 7 C5.01 6.67 4.02 6.34 3 6 C3 5.01 3 4.02 3 3 C2.01 2.67 1.02 2.34 0 2 C0 1.34 0 0.68 0 0 Z " fill="#BFE2FB" transform="translate(212,336)"/>
<path d="M0 0 C1.65 0 3.3 0 5 0 C5.33 2.31 5.66 4.62 6 7 C5.34 7 4.68 7 4 7 C3.67 6.34 3.34 5.68 3 5 C2.67 5.66 2.34 6.32 2 7 C1.34 7 0.68 7 0 7 C0 4.69 0 2.38 0 0 Z " fill="#D2EBFB" transform="translate(43,330)"/>
<path d="M0 0 C2.475 0.495 2.475 0.495 5 1 C5 2.98 5 4.96 5 7 C3.35 7 1.7 7 0 7 C0 4.69 0 2.38 0 0 Z " fill="#D5ECFB" transform="translate(14,328)"/>
<path d="M0 0 C0.75 1.5625 0.75 1.5625 1 4 C-0.13084437 6.50286409 -1.52139516 8.67007722 -3 11 C-4.04005702 7.61981469 -4.08004482 4.5219721 -4 1 C-2.68 0.67 -1.36 0.34 0 0 Z " fill="#BDE0F8" transform="translate(203,321)"/>
<path d="M0 0 C2.475 0.495 2.475 0.495 5 1 C5 2.32 5 3.64 5 5 C4.01 5 3.02 5 2 5 C2 5.66 2 6.32 2 7 C1.34 7 0.68 7 0 7 C0 4.69 0 2.38 0 0 Z " fill="#C0E1F7" transform="translate(294,425)"/>
<path d="M0 0 C1.65 0 3.3 0 5 0 C5 2.31 5 4.62 5 7 C4.34 7 3.68 7 3 7 C3 6.34 3 5.68 3 5 C2.34 5 1.68 5 1 5 C0.67 5.66 0.34 6.32 0 7 C0 4.69 0 2.38 0 0 Z " fill="#C5E5FA" transform="translate(244,423)"/>
<path d="M0 0 C1.65 0 3.3 0 5 0 C5 2.31 5 4.62 5 7 C3.33333333 7 1.66666667 7 0 7 C0 4.69 0 2.38 0 0 Z " fill="#BDDEF5" transform="translate(347,417)"/>
<path d="M0 0 C2.0625 0.4375 2.0625 0.4375 4 1 C4 2.65 4 4.3 4 6 C3.01 6 2.02 6 1 6 C1 6.66 1 7.32 1 8 C0.34 8 -0.32 8 -1 8 C-1.04241723 5.66705225 -1.04092937 3.33297433 -1 1 C-0.67 0.67 -0.34 0.34 0 0 Z " fill="#C6E5FA" transform="translate(178,418)"/>
<path d="M0 0 C2.475 0.495 2.475 0.495 5 1 C5 2.98 5 4.96 5 7 C3.35 6.67 1.7 6.34 0 6 C0 4.02 0 2.04 0 0 Z " fill="#BEDFF5" transform="translate(348,405)"/>
<path d="M0 0 C-0.33 1.32 -0.66 2.64 -1 4 C-1.99 4 -2.98 4 -4 4 C-4 4.66 -4 5.32 -4 6 C-4.66 6 -5.32 6 -6 6 C-6 4.02 -6 2.04 -6 0 C-3.50907189 -1.24546405 -2.58919267 -0.7767578 0 0 Z " fill="#BEDEF5" transform="translate(331,393)"/>
<path d="M0 0 C2.475 0.495 2.475 0.495 5 1 C5 2.32 5 3.64 5 5 C4.01 5 3.02 5 2 5 C2 5.99 2 6.98 2 8 C1.34 8 0.68 8 0 8 C0 5.36 0 2.72 0 0 Z " fill="#D4ECFB" transform="translate(18,375)"/>
<path d="M0 0 C2.475 0.495 2.475 0.495 5 1 C5 2.98 5 4.96 5 7 C3.33333333 7 1.66666667 7 0 7 C0 4.69 0 2.38 0 0 Z " fill="#D0EAFB" transform="translate(70,378)"/>
<path d="M0 0 C0 0.99 0 1.98 0 3 C-0.66 3 -1.32 3 -2 3 C-2 4.32 -2 5.64 -2 7 C-5.73639216 5.75453595 -6.18756513 4.36595047 -8 1 C-5.23735711 0.40267181 -2.83967231 0 0 0 Z " fill="#B7DAF3" transform="translate(239,362)"/>
<path d="M0 0 C2.475 0.495 2.475 0.495 5 1 C5 3.31 5 5.62 5 8 C4.34 8 3.68 8 3 8 C3 7.01 3 6.02 3 5 C2.34 5 1.68 5 1 5 C0.67 5.66 0.34 6.32 0 7 C0 4.69 0 2.38 0 0 Z " fill="#D4ECFB" transform="translate(43,341)"/>
<path d="M0 0 C2.475 0.495 2.475 0.495 5 1 C5 2.32 5 3.64 5 5 C4.01 5 3.02 5 2 5 C2 5.66 2 6.32 2 7 C1.34 7 0.68 7 0 7 C0 4.69 0 2.38 0 0 Z " fill="#D4ECFB" transform="translate(5,339)"/>
<path d="M0 0 C2.475 0.495 2.475 0.495 5 1 C5 2.32 5 3.64 5 5 C4.01 5 3.02 5 2 5 C2 5.66 2 6.32 2 7 C1.34 7 0.68 7 0 7 C0 4.69 0 2.38 0 0 Z " fill="#D4ECFB" transform="translate(35,329)"/>
<path d="M0 0 C1.65 0 3.3 0 5 0 C5 1.32 5 2.64 5 4 C4.01 4.33 3.02 4.66 2 5 C2 5.66 2 6.32 2 7 C1.34 7 0.68 7 0 7 C0 4.69 0 2.38 0 0 Z " fill="#D7EDFB" transform="translate(21,317)"/>
<path d="M0 0 C-0.33 2.31 -0.66 4.62 -1 7 C-1.99 6.67 -2.98 6.34 -4 6 C-4 5.01 -4 4.02 -4 3 C-4.99 2.67 -5.98 2.34 -7 2 C-7 1.34 -7 0.68 -7 0 C-2.25 -1.125 -2.25 -1.125 0 0 Z " fill="#C0E2FB" transform="translate(246,277)"/>
<path d="M0 0 C3.14737182 0.69941596 6.02588876 1.76078698 9 3 C9 3.33 9 3.66 9 4 C5.37 4 1.74 4 -2 4 C-1.34 2.68 -0.68 1.36 0 0 Z " fill="#BEE1F7" transform="translate(216,443)"/>
<path d="M0 0 C1.32 0 2.64 0 4 0 C4 2.31 4 4.62 4 7 C2.33333333 7 0.66666667 7 -1 7 C-0.67 4.69 -0.34 2.38 0 0 Z " fill="#C7E6FB" transform="translate(200,432)"/>
<path d="M0 0 C1.32 0.66 2.64 1.32 4 2 C4 4.31 4 6.62 4 9 C3.34 9 2.68 9 2 9 C2 8.01 2 7.02 2 6 C1.34 6 0.68 6 0 6 C-0.33 6.66 -0.66 7.32 -1 8 C-1.125 2.25 -1.125 2.25 0 0 Z " fill="#C6E5FA" transform="translate(201,419)"/>
<path d="M0 0 C1.32 0.66 2.64 1.32 4 2 C4 3.98 4 5.96 4 8 C3.34 8 2.68 8 2 8 C2 7.34 2 6.68 2 6 C1.34 6 0.68 6 0 6 C-0.33 6.66 -0.66 7.32 -1 8 C-1.04241723 5.66705225 -1.04092937 3.33297433 -1 1 C-0.67 0.67 -0.34 0.34 0 0 Z " fill="#CEEAFB" transform="translate(55,412)"/>
<path d="M0 0 C2.475 0.495 2.475 0.495 5 1 C5 2.98 5 4.96 5 7 C4.34 7 3.68 7 3 7 C3 6.34 3 5.68 3 5 C2.34 5 1.68 5 1 5 C0.67 5.66 0.34 6.32 0 7 C0 4.69 0 2.38 0 0 Z " fill="#C1E1F7" transform="translate(333,404)"/>
<path d="M0 0 C2.475 0.495 2.475 0.495 5 1 C5 2.98 5 4.96 5 7 C3.33333333 7 1.66666667 7 0 7 C0 4.69 0 2.38 0 0 Z " fill="#D2ECFB" transform="translate(12,375)"/>
<path d="M0 0 C1.65 0.33 3.3 0.66 5 1 C4.67 2.98 4.34 4.96 4 7 C3.67 6.34 3.34 5.68 3 5 C2.34 5 1.68 5 1 5 C0.67 5.66 0.34 6.32 0 7 C-0.93423645 3.98968256 -1.04449911 3.13349732 0 0 Z " fill="#D0EAFB" transform="translate(72,355)"/>
<path d="M0 0 C2.475 0.495 2.475 0.495 5 1 C5 2.98 5 4.96 5 7 C3.33333333 7 1.66666667 7 0 7 C0 4.69 0 2.38 0 0 Z " fill="#D3ECFB" transform="translate(73,331)"/>
<path d="M0 0 C0.66 0.33 1.32 0.66 2 1 C-3.85961392 5.49076968 -8.65643202 8.776072 -16 10 C-13.30840491 6.87427667 -10.0365868 5.1963218 -6.4375 3.25 C-4.70306641 2.29867187 -4.70306641 2.29867187 -2.93359375 1.328125 C-1.96550781 0.88984375 -0.99742187 0.4515625 0 0 Z " fill="#DFF1FC" transform="translate(167,75)"/>
<path d="M0 0 C2.475 0.495 2.475 0.495 5 1 C5 2.98 5 4.96 5 7 C3.33333333 7 1.66666667 7 0 7 C0 4.69 0 2.38 0 0 Z " fill="#C3E3FA" transform="translate(273,436)"/>
<path d="M0 0 C1.65 0 3.3 0 5 0 C4.67 1.65 4.34 3.3 4 5 C3.34 5 2.68 5 2 5 C2 5.66 2 6.32 2 7 C1.34 7 0.68 7 0 7 C0 4.69 0 2.38 0 0 Z " fill="#BFDFF5" transform="translate(338,428)"/>
<path d="M0 0 C2.475 0.495 2.475 0.495 5 1 C5 2.98 5 4.96 5 7 C4.34 7 3.68 7 3 7 C3 6.34 3 5.68 3 5 C2.34 5 1.68 5 1 5 C0.67 5.66 0.34 6.32 0 7 C0 4.69 0 2.38 0 0 Z " fill="#C4E3F9" transform="translate(288,425)"/>
<path d="M0 0 C2.475 0.495 2.475 0.495 5 1 C5 2.98 5 4.96 5 7 C3.33333333 7 1.66666667 7 0 7 C0 4.69 0 2.38 0 0 Z " fill="#C3E2F8" transform="translate(318,415)"/>
<path d="M0 0 C2.475 0.495 2.475 0.495 5 1 C5 2.32 5 3.64 5 5 C4.01 5 3.02 5 2 5 C2 5.66 2 6.32 2 7 C1.34 7 0.68 7 0 7 C0 4.69 0 2.38 0 0 Z " fill="#C0E1F7" transform="translate(324,415)"/>
<path d="M0 0 C1.65 0 3.3 0 5 0 C4.67 1.65 4.34 3.3 4 5 C3.34 5 2.68 5 2 5 C2 5.66 2 6.32 2 7 C1.34 7 0.68 7 0 7 C0 4.69 0 2.38 0 0 Z " fill="#CFEAFA" transform="translate(60,413)"/>
<path d="M0 0 C1.65 0 3.3 0 5 0 C4.67 1.65 4.34 3.3 4 5 C3.34 5 2.68 5 2 5 C2 5.66 2 6.32 2 7 C1.34 7 0.68 7 0 7 C0 4.69 0 2.38 0 0 Z " fill="#BEDFF6" transform="translate(310,403)"/>
<path d="M0 0 C2.475 0.495 2.475 0.495 5 1 C5 1.99 5 2.98 5 4 C2.5 5.6875 2.5 5.6875 0 7 C0 4.69 0 2.38 0 0 Z " fill="#C9E7FB" transform="translate(164,395)"/>
<path d="M0 0 C1.65 0 3.3 0 5 0 C5 1.32 5 2.64 5 4 C4.01 4 3.02 4 2 4 C2 4.99 2 5.98 2 7 C1.34 7 0.68 7 0 7 C0 4.69 0 2.38 0 0 Z " fill="#D5ECFB" transform="translate(49,342)"/>
<path d="M0 0 C2.475 0.495 2.475 0.495 5 1 C5 2.32 5 3.64 5 5 C4.01 5 3.02 5 2 5 C2 5.66 2 6.32 2 7 C1.34 7 0.68 7 0 7 C0 4.69 0 2.38 0 0 Z " fill="#D2EBFB" transform="translate(20,340)"/>
<path d="M0 0 C2.475 0.495 2.475 0.495 5 1 C5 2.98 5 4.96 5 7 C3.33333333 7 1.66666667 7 0 7 C0 4.69 0 2.38 0 0 Z " fill="#D1EBFC" transform="translate(14,340)"/>
<path d="M0 0 C-1 4 -1 4 -2 8 C-2.66 8 -3.32 8 -4 8 C-4 6.68 -4 5.36 -4 4 C-4.99 3.67 -5.98 3.34 -7 3 C-7 2.34 -7 1.68 -7 1 C-2.25 0 -2.25 0 0 0 Z " fill="#B5DAF4" transform="translate(252,332)"/>
<path d="M0 0 C2.475 0.495 2.475 0.495 5 1 C5 3.31 5 5.62 5 8 C4.34 7.67 3.68 7.34 3 7 C3 6.34 3 5.68 3 5 C2.34 5 1.68 5 1 5 C0.67 5.66 0.34 6.32 0 7 C0 4.69 0 2.38 0 0 Z " fill="#D4ECFB" transform="translate(15,316)"/>
<path d="M0 0 C1.65 0 3.3 0 5 0 C5 2.31 5 4.62 5 7 C3.35 6.67 1.7 6.34 0 6 C0 4.02 0 2.04 0 0 Z " fill="#D5ECFB" transform="translate(0,316)"/>
<path d="M0 0 C2.475 0.495 2.475 0.495 5 1 C4.67 2.32 4.34 3.64 4 5 C3.34 5 2.68 5 2 5 C2 5.66 2 6.32 2 7 C1.34 7 0.68 7 0 7 C0 4.69 0 2.38 0 0 Z " fill="#BEDFF7" transform="translate(323,439)"/>
<path d="M0 0 C1.65 0 3.3 0 5 0 C4.75 2.375 4.75 2.375 4 5 C1.9375 6.3125 1.9375 6.3125 0 7 C0 4.69 0 2.38 0 0 Z " fill="#C7E6FB" transform="translate(191,432)"/>
<path d="M0 0 C2.475 0.495 2.475 0.495 5 1 C5 2.32 5 3.64 5 5 C3.35 5.66 1.7 6.32 0 7 C0 4.69 0 2.38 0 0 Z " fill="#CFEBFB" transform="translate(31,411)"/>
<path d="M0 0 C2.475 0.495 2.475 0.495 5 1 C5 1.99 5 2.98 5 4 C2.5 5.6875 2.5 5.6875 0 7 C0 4.69 0 2.38 0 0 Z " fill="#C4E4FA" transform="translate(222,410)"/>
<path d="M0 0 C1.98 0.495 1.98 0.495 4 1 C4 2.98 4 4.96 4 7 C2.33333333 7 0.66666667 7 -1 7 C-0.67 4.69 -0.34 2.38 0 0 Z " fill="#CFEAFC" transform="translate(86,367)"/>
<path d="M0 0 C2.475 0.495 2.475 0.495 5 1 C5 2.98 5 4.96 5 7 C4.34 7 3.68 7 3 7 C3 6.34 3 5.68 3 5 C2.34 5 1.68 5 1 5 C0.67 5.66 0.34 6.32 0 7 C0 4.69 0 2.38 0 0 Z " fill="#CFEAFB" transform="translate(116,345)"/>
<path d="M0 0 C2.475 0.495 2.475 0.495 5 1 C4.67 2.32 4.34 3.64 4 5 C3.34 5 2.68 5 2 5 C2 5.66 2 6.32 2 7 C1.34 7 0.68 7 0 7 C0 4.69 0 2.38 0 0 Z " fill="#D3EBFB" transform="translate(50,330)"/>
<path d="M0 0 C2.475 0.495 2.475 0.495 5 1 C5 2.98 5 4.96 5 7 C4.34 7 3.68 7 3 7 C2.67 6.34 2.34 5.68 2 5 C1.34 5.66 0.68 6.32 0 7 C0 4.69 0 2.38 0 0 Z " fill="#D2EBFB" transform="translate(29,329)"/>
<path d="M0 0 C-0.66 1.98 -1.32 3.96 -2 6 C-2.99 6 -3.98 6 -5 6 C-6.6875 3.5 -6.6875 3.5 -8 1 C-2.25 0 -2.25 0 0 0 Z " fill="#B8DCF7" transform="translate(279,273)"/>
<path d="M0 0 C0.66 0.33 1.32 0.66 2 1 C2 1.99 2 2.98 2 4 C2.99 4.33 3.98 4.66 5 5 C5 5.33 5 5.66 5 6 C2.36 6.33 -0.28 6.66 -3 7 C-1.125 1.125 -1.125 1.125 0 0 Z " fill="#CBE9FC" transform="translate(324,116)"/>
<path d="M0 0 C2.475 0.495 2.475 0.495 5 1 C5 2.32 5 3.64 5 5 C3.68 5 2.36 5 1 5 C0.67 5.66 0.34 6.32 0 7 C0 4.69 0 2.38 0 0 Z " fill="#C0E1F8" transform="translate(279,436)"/>
<path d="M0 0 C2.475 0.495 2.475 0.495 5 1 C5 2.98 5 4.96 5 7 C4.34 7 3.68 7 3 7 C2.67 6.34 2.34 5.68 2 5 C1.34 5.66 0.68 6.32 0 7 C0 4.69 0 2.38 0 0 Z " fill="#C6E6FB" transform="translate(229,434)"/>
<path d="M0 0 C1.65 0 3.3 0 5 0 C4.67 1.65 4.34 3.3 4 5 C3.01 5 2.02 5 1 5 C0.67 5.66 0.34 6.32 0 7 C0 4.69 0 2.38 0 0 Z " fill="#C0E1F7" transform="translate(295,414)"/>
<path d="M0 0 C1.66666667 0 3.33333333 0 5 0 C5 2.31 5 4.62 5 7 C4.01 6.67 3.02 6.34 2 6 C1.01 6.495 1.01 6.495 0 7 C0 4.69 0 2.38 0 0 Z " fill="#CFEAFB" transform="translate(86,356)"/>
<path d="M0 0 C0.66 1.32 1.32 2.64 2 4 C1.01 4.33 0.02 4.66 -1 5 C-1 5.66 -1 6.32 -1 7 C-1.66 7 -2.32 7 -3 7 C-3 6.34 -3 5.68 -3 5 C-3.99 4.67 -4.98 4.34 -6 4 C-4.02 2.68 -2.04 1.36 0 0 Z " fill="#BADBF3" transform="translate(236,344)"/>
<path d="M0 0 C2.475 0.495 2.475 0.495 5 1 C5 2.98 5 4.96 5 7 C4.34 7 3.68 7 3 7 C2.67 6.34 2.34 5.68 2 5 C1.34 5.66 0.68 6.32 0 7 C0 4.69 0 2.38 0 0 Z " fill="#D0EAFB" transform="translate(87,344)"/>
<path d="M0 0 C3.73639216 1.24546405 4.18756513 2.63404953 6 6 C5.236875 5.979375 4.47375 5.95875 3.6875 5.9375 C0.89814214 5.87057159 0.89814214 5.87057159 -2 7 C-1.34 4.69 -0.68 2.38 0 0 Z " fill="#BEE1FB" transform="translate(230,324)"/>
<path d="M0 0 C2.475 0.495 2.475 0.495 5 1 C5 2.98 5 4.96 5 7 C4.34 7 3.68 7 3 7 C2.67 6.34 2.34 5.68 2 5 C1.01 5.495 1.01 5.495 0 6 C0 4.02 0 2.04 0 0 Z " fill="#D2EBFB" transform="translate(59,319)"/>
<path d="M0 0 C2.475 0.495 2.475 0.495 5 1 C5 2.32 5 3.64 5 5 C3.68 5 2.36 5 1 5 C0.67 5.66 0.34 6.32 0 7 C0 4.69 0 2.38 0 0 Z " fill="#D6ECFB" transform="translate(36,317)"/>
<path d="M0 0 C1.98 0 3.96 0 6 0 C6.33 0.99 6.66 1.98 7 3 C6.34 3 5.68 3 5 3 C5 3.66 5 4.32 5 5 C3.35 4.67 1.7 4.34 0 4 C0 2.68 0 1.36 0 0 Z " fill="#C5E5FC" transform="translate(251,230)"/>
<path d="M0 0 C-0.66 2.31 -1.32 4.62 -2 7 C-2.66 7 -3.32 7 -4 7 C-4.33 5.68 -4.66 4.36 -5 3 C-5.66 3 -6.32 3 -7 3 C-7 2.34 -7 1.68 -7 1 C-4.50935112 0.31292445 -2.62113708 0 0 0 Z " fill="#D0EAFB" transform="translate(254,191)"/>
<path d="M0 0 C1.65 0 3.3 0 5 0 C5 1.32 5 2.64 5 4 C4.360625 4.12375 3.72125 4.2475 3.0625 4.375 C2.0415625 4.684375 2.0415625 4.684375 1 5 C0.67 5.66 0.34 6.32 0 7 C0 4.69 0 2.38 0 0 Z " fill="#C2E2F9" transform="translate(280,425)"/>
<path d="M0 0 C0.99 0.33 1.98 0.66 3 1 C2.67 1.66 2.34 2.32 2 3 C2.66 3 3.32 3 4 3 C4.33 2.34 4.66 1.68 5 1 C5 2.98 5 4.96 5 7 C3.33333333 7 1.66666667 7 0 7 C0 4.69 0 2.38 0 0 Z " fill="#CEEAFC" transform="translate(9,422)"/>
<path d="M0 0 C2.475 0.495 2.475 0.495 5 1 C4.67 2.32 4.34 3.64 4 5 C3.01 5 2.02 5 1 5 C0.67 5.66 0.34 6.32 0 7 C0 4.69 0 2.38 0 0 Z " fill="#C2E2F9" transform="translate(266,412)"/>
<path d="M0 0 C2.475 0.495 2.475 0.495 5 1 C4.67 2.32 4.34 3.64 4 5 C3.01 5 2.02 5 1 5 C0.67 5.66 0.34 6.32 0 7 C0 4.69 0 2.38 0 0 Z " fill="#D1EBFB" transform="translate(3,386)"/>
<path d="M0 0 C2.475 0.495 2.475 0.495 5 1 C5 2.32 5 3.64 5 5 C3.68 5 2.36 5 1 5 C0.67 5.66 0.34 6.32 0 7 C0 4.69 0 2.38 0 0 Z " fill="#D2EBFB" transform="translate(49,353)"/>
<path d="M0 0 C0.99 0 1.98 0 3 0 C3.66 1.98 4.32 3.96 5 6 C2.69 6 0.38 6 -2 6 C-1.34 4.02 -0.68 2.04 0 0 Z " fill="#B7DBF4" transform="translate(217,354)"/>
<path d="M0 0 C0.66 0 1.32 0 2 0 C2 1.32 2 2.64 2 4 C2.99 4.33 3.98 4.66 5 5 C5 5.66 5 6.32 5 7 C2.69 7 0.38 7 -2 7 C-1.34 4.69 -0.68 2.38 0 0 Z " fill="#B7DCF7" transform="translate(257,264)"/>
<path d="M0 0 C0.99 0.66 1.98 1.32 3 2 C-0.36736031 4.82858266 -3.87451958 6.4998253 -8 8 C-8.99 7.67 -9.98 7.34 -11 7 C-10.28972656 6.66226562 -9.57945312 6.32453125 -8.84765625 5.9765625 C-7.92855469 5.53054688 -7.00945312 5.08453125 -6.0625 4.625 C-4.68771484 3.96371094 -4.68771484 3.96371094 -3.28515625 3.2890625 C-0.87096198 2.20800838 -0.87096198 2.20800838 0 0 Z " fill="#B7DDF7" transform="translate(261,251)"/>
<path d="M0 0 C0.66 0 1.32 0 2 0 C2.625 2.8125 2.625 2.8125 3 6 C2.01 7.485 2.01 7.485 1 9 C0.34 9 -0.32 9 -1 9 C-0.67 6.03 -0.34 3.06 0 0 Z " fill="#BFE0F7" transform="translate(245,409)"/>
<path d="M0 0 C0.66 0.66 1.32 1.32 2 2 C2.66 1.67 3.32 1.34 4 1 C4 3.31 4 5.62 4 8 C3.34 7.67 2.68 7.34 2 7 C2 6.34 2 5.68 2 5 C1.34 5 0.68 5 0 5 C-0.33 5.66 -0.66 6.32 -1 7 C-1.04254356 5.00045254 -1.04080783 2.99958364 -1 1 C-0.67 0.67 -0.34 0.34 0 0 Z " fill="#D0EBFC" transform="translate(26,399)"/>
<path d="M0 0 C1.65 0 3.3 0 5 0 C5 1.32 5 2.64 5 4 C4.01 4.33 3.02 4.66 2 5 C1.34 5.66 0.68 6.32 0 7 C0 4.69 0 2.38 0 0 Z " fill="#BFE0F6" transform="translate(340,393)"/>
<path d="M0 0 C0.66 0.33 1.32 0.66 2 1 C2 1.99 2 2.98 2 4 C2.99 4.33 3.98 4.66 5 5 C5 5.66 5 6.32 5 7 C2.69 7 0.38 7 -2 7 C-1.34 4.69 -0.68 2.38 0 0 Z " fill="#C1E2FA" transform="translate(225,267)"/>
<path d="M0 0 C-0.33 0.66 -0.66 1.32 -1 2 C-1.66 2 -2.32 2 -3 2 C-3 3.32 -3 4.64 -3 6 C-3.66 6 -4.32 6 -5 6 C-5.99 4.02 -6.98 2.04 -8 0 C-4.71303767 -0.79953138 -3.28976808 -1.09658936 0 0 Z " fill="#CDE7F9" transform="translate(228,251)"/>
<path d="M0 0 C2.5625 0.125 2.5625 0.125 5 1 C5.66 1.99 6.32 2.98 7 4 C3.7 3.67 0.4 3.34 -3 3 C-2.01 2.01 -1.02 1.02 0 0 Z " fill="#B0D9F4" transform="translate(282,242)"/>
<path d="M0 0 C0.66 0 1.32 0 2 0 C2.33 0.99 2.66 1.98 3 3 C3.66 3.33 4.32 3.66 5 4 C4.67 4.99 4.34 5.98 4 7 C3.01 6.67 2.02 6.34 1 6 C0.01 6.33 -0.98 6.66 -2 7 C-1.34 4.69 -0.68 2.38 0 0 Z " fill="#C7E5FA" transform="translate(238,238)"/>
<path d="M0 0 C0.33 0 0.66 0 1 0 C1.25 2.8125 1.25 2.8125 1 6 C-1 7.875 -1 7.875 -3 9 C-3.66 8.67 -4.32 8.34 -5 8 C-4.19185349 6.66402348 -3.37836819 5.331275 -2.5625 4 C-2.11003906 3.2575 -1.65757812 2.515 -1.19140625 1.75 C-0.79824219 1.1725 -0.40507812 0.595 0 0 Z " fill="#C7E6FB" transform="translate(352,162)"/>
<path d="M0 0 C2.31 0 4.62 0 7 0 C6.01 2.31 5.02 4.62 4 7 C3.34 7 2.68 7 2 7 C2 5.68 2 4.36 2 3 C1.01 2.67 0.02 2.34 -1 2 C-0.67 1.34 -0.34 0.68 0 0 Z " fill="#CCE9FC" transform="translate(339,125)"/>
<path d="M0 0 C1.65 0 3.3 0 5 0 C5 1.32 5 2.64 5 4 C3.35 4.66 1.7 5.32 0 6 C0 4.02 0 2.04 0 0 Z " fill="#CFEAFC" transform="translate(92,368)"/>
<path d="M0 0 C1.65 0 3.3 0 5 0 C5 1.32 5 2.64 5 4 C3.35 4.66 1.7 5.32 0 6 C0 4.02 0 2.04 0 0 Z " fill="#D4ECFC" transform="translate(6,328)"/>
<path d="M0 0 C2.31 0 4.62 0 7 0 C7 2.31 7 4.62 7 7 C5.83040013 6.02433888 4.66438823 5.044375 3.5 4.0625 C2.8503125 3.51722656 2.200625 2.97195312 1.53125 2.41015625 C1.0259375 1.94480469 0.520625 1.47945313 0 1 C0 0.67 0 0.34 0 0 Z " fill="#000000" transform="translate(346,0)"/>
<path d="M0 0 C0.99 0.33 1.98 0.66 3 1 C3 1.66 3 2.32 3 3 C3.66 2.34 4.32 1.68 5 1 C5 2.32 5 3.64 5 5 C4.01 5 3.02 5 2 5 C2 5.66 2 6.32 2 7 C1.34 7 0.68 7 0 7 C0 4.69 0 2.38 0 0 Z " fill="#C6E5FB" transform="translate(235,434)"/>
<path d="M0 0 C0.66 0 1.32 0 2 0 C2 0.99 2 1.98 2 3 C2.66 3 3.32 3 4 3 C4.33 2.01 4.66 1.02 5 0 C5 2.31 5 4.62 5 7 C4.34 6.34 3.68 5.68 3 5 C2.01 5.33 1.02 5.66 0 6 C0 4.02 0 2.04 0 0 Z " fill="#C3E3F9" transform="translate(288,414)"/>
<path d="M0 0 C1.32 0.33 2.64 0.66 4 1 C3.34 1 2.68 1 2 1 C2 1.66 2 2.32 2 3 C2.66 3 3.32 3 4 3 C4.33 4.32 4.66 5.64 5 7 C4.34 7 3.68 7 3 7 C3 6.34 3 5.68 3 5 C2.34 5 1.68 5 1 5 C0.67 5.66 0.34 6.32 0 7 C0 4.69 0 2.38 0 0 Z " fill="#CEEAFC" transform="translate(39,412)"/>
<path d="M0 0 C0.66 0.99 1.32 1.98 2 3 C2.99 3.66 3.98 4.32 5 5 C4 6 4 6 0.4375 6.0625 C-0.696875 6.041875 -1.83125 6.02125 -3 6 C-2.01 4.02 -1.02 2.04 0 0 Z " fill="#B1D7F2" transform="translate(240,367)"/>
<path d="M0 0 C2.31 0 4.62 0 7 0 C5.625 1.5 5.625 1.5 4 3 C3.34 3 2.68 3 2 3 C1.34 4.32 0.68 5.64 0 7 C0 4.69 0 2.38 0 0 Z " fill="#000000" transform="translate(0,0)"/>
<path d="M0 0 C1.65 0 3.3 0 5 0 C4.67 0.99 4.34 1.98 4 3 C4 2.34 4 1.68 4 1 C3.34 1 2.68 1 2 1 C2.185625 1.61875 2.37125 2.2375 2.5625 2.875 C3 5 3 5 2 7 C1.34 7 0.68 7 0 7 C0 4.69 0 2.38 0 0 Z " fill="#C7E6FB" transform="translate(287,437)"/>
<path d="M0 0 C1.65 0 3.3 0 5 0 C5 0.99 5 1.98 5 3 C4.34 2.67 3.68 2.34 3 2 C2.67 3.65 2.34 5.3 2 7 C1.34 7 0.68 7 0 7 C0 4.69 0 2.38 0 0 Z " fill="#C8E6FB" transform="translate(201,397)"/>
<path d="M0 0 C2.475 0.99 2.475 0.99 5 2 C4.6875 3.9375 4.6875 3.9375 4 6 C3.01 6.33 2.02 6.66 1 7 C0.67 4.69 0.34 2.38 0 0 Z " fill="#C8E6FA" transform="translate(165,382)"/>
<path d="M0 0 C2.0625 0.4375 2.0625 0.4375 4 1 C3.01 2.98 2.02 4.96 1 7 C0.34 7 -0.32 7 -1 7 C-1.04254356 5.00045254 -1.04080783 2.99958364 -1 1 C-0.67 0.67 -0.34 0.34 0 0 Z " fill="#D0EBFC" transform="translate(88,332)"/>
<path d="M0 0 C-0.33 1.65 -0.66 3.3 -1 5 C-2.98 5 -4.96 5 -7 5 C-6.625 3.0625 -6.625 3.0625 -6 1 C-4 0 -4 0 0 0 Z " fill="#9DC7E6" transform="translate(336,305)"/>
<path d="M0 0 C2.475 0.495 2.475 0.495 5 1 C4.67 1.99 4.34 2.98 4 4 C3.01 4 2.02 4 1 4 C0.67 4.66 0.34 5.32 0 6 C0 4.02 0 2.04 0 0 Z " fill="#C2E1F7" transform="translate(338,440)"/>
<path d="M0 0 C2.475 0.495 2.475 0.495 5 1 C4.67 1.99 4.34 2.98 4 4 C4 3.34 4 2.68 4 2 C3.34 2 2.68 2 2 2 C2.33 2.99 2.66 3.98 3 5 C2.34 5 1.68 5 1 5 C0.67 5.66 0.34 6.32 0 7 C0 4.69 0 2.38 0 0 Z " fill="#C4E4F9" transform="translate(309,426)"/>
<path d="M0 0 C2.475 0.495 2.475 0.495 5 1 C4.67 1.99 4.34 2.98 4 4 C3.01 4 2.02 4 1 4 C0.67 4.66 0.34 5.32 0 6 C0 4.02 0 2.04 0 0 Z " fill="#C1E1F8" transform="translate(310,415)"/>
<path d="M0 0 C0.66 0.66 1.32 1.32 2 2 C2.66 1.34 3.32 0.68 4 0 C4 1.98 4 3.96 4 6 C2.33333333 6 0.66666667 6 -1 6 C-0.67 4.02 -0.34 2.04 0 0 Z " fill="#CEEAFC" transform="translate(41,389)"/>
<path d="M0 0 C0.66 0.33 1.32 0.66 2 1 C0.87926138 1.83905565 -0.24674547 2.67107831 -1.375 3.5 C-2.00148438 3.9640625 -2.62796875 4.428125 -3.2734375 4.90625 C-5 6 -5 6 -7 6 C-7 5.01 -7 4.02 -7 3 C-4.69631264 1.93347808 -2.35981813 0.93578995 0 0 Z " fill="#CFE8F8" transform="translate(294,313)"/>
<path d="M0 0 C-0.66 1.98 -1.32 3.96 -2 6 C-2.66 6 -3.32 6 -4 6 C-4 5.01 -4 4.02 -4 3 C-4.99 2.67 -5.98 2.34 -7 2 C-7 1.67 -7 1.34 -7 1 C-2.25 0 -2.25 0 0 0 Z " fill="#B4DAF5" transform="translate(265,303)"/>
<path d="M0 0 C1 2 1 2 0.4765625 4.09375 C0.05503906 5.28484375 0.05503906 5.28484375 -0.375 6.5 C-0.65085937 7.2940625 -0.92671875 8.088125 -1.2109375 8.90625 C-2 11 -2 11 -3 13 C-3.66 13 -4.32 13 -5 13 C-4.54803755 11.39402675 -4.08817673 9.79027492 -3.625 8.1875 C-3.36976562 7.29417969 -3.11453125 6.40085937 -2.8515625 5.48046875 C-2 3 -2 3 0 0 Z " fill="#DFF1FD" transform="translate(111,68)"/>
<path d="M0 0 C0.66 0 1.32 0 2 0 C1.67 2.97 1.34 5.94 1 9 C-1.08954032 4.82091936 -1.16552619 4.19589427 0 0 Z " fill="#B8DEF5" transform="translate(191,406)"/>
<path d="M0 0 C0.99 0.33 1.98 0.66 3 1 C2.67 1.66 2.34 2.32 2 3 C2.99 2.67 3.98 2.34 5 2 C4.67 2.99 4.34 3.98 4 5 C3.01 5 2.02 5 1 5 C0.67 5.66 0.34 6.32 0 7 C0 4.69 0 2.38 0 0 Z " fill="#CFEAFC" transform="translate(78,355)"/>
<path d="M0 0 C0 2.62113708 -0.31292445 4.50935112 -1 7 C-1.66 7 -2.32 7 -3 7 C-3.66 5.02 -4.32 3.04 -5 1 C-3.35 0.67 -1.7 0.34 0 0 Z " fill="#BEE1FA" transform="translate(232,306)"/>
<path d="M0 0 C1.65 0 3.3 0 5 0 C4.67 0.66 4.34 1.32 4 2 C3.34 1.67 2.68 1.34 2 1 C2.33 1.99 2.66 2.98 3 4 C2.01 4.99 1.02 5.98 0 7 C0 4.69 0 2.38 0 0 Z " fill="#CEEAFC" transform="translate(16,411)"/>
<path d="M0 0 C0.66 0 1.32 0 2 0 C2.6875 1.8125 2.6875 1.8125 3 4 C1.5625 5.75 1.5625 5.75 0 7 C0 4.69 0 2.38 0 0 Z M3 0 C3.66 0 4.32 0 5 0 C4.67 0.66 4.34 1.32 4 2 C3.67 1.34 3.34 0.68 3 0 Z " fill="#CFEAFC" transform="translate(101,345)"/>
<path d="M0 0 C0.66 0 1.32 0 2 0 C2.33 2.31 2.66 4.62 3 7 C1.68 6.67 0.36 6.34 -1 6 C-0.67 4.02 -0.34 2.04 0 0 Z " fill="#AAD1EE" transform="translate(336,440)"/>
<path d="M0 0 C0.99 0 1.98 0 3 0 C2.67 1.98 2.34 3.96 2 6 C1.01 6 0.02 6 -1 6 C-0.67 4.02 -0.34 2.04 0 0 Z " fill="#C7E6FA" transform="translate(187,396)"/>
<path d="M0 0 C0 1.65 0 3.3 0 5 C-1.65 5 -3.3 5 -5 5 C-5 4.01 -5 3.02 -5 2 C-1.125 0 -1.125 0 0 0 Z " fill="#B9DBF3" transform="translate(324,394)"/>
</svg>
